<svg xmlns="http://www.w3.org/2000/svg" viewBox="0 0 1080 1080"><defs><style>.cls-1{fill:#ff5301;}.cls-2{fill:#fff;}</style></defs><g id="Layer_2" data-name="Layer 2"><g id="Layer_1-2" data-name="Layer 1"><rect class="cls-1" width="1080" height="1080" rx="106.98"/><path class="cls-2" d="M619.35,824.73H566.48V536.35a106,106,0,1,0-52.87,0V824.73H460.74a26.44,26.44,0,1,0,0,52.87H619.35a26.44,26.44,0,0,0,0-52.87ZM502.65,396.67a52.87,52.87,0,1,1,74.77,74.76c-20,20-54.79,20-74.77,0A52.93,52.93,0,0,1,502.65,396.67Z"/><path class="cls-2" d="M689.57,284.52a26.43,26.43,0,0,0-37.38,37.38,158.57,158.57,0,0,1,0,224.3,26.44,26.44,0,1,0,37.38,37.39,211.42,211.42,0,0,0,0-299.07Z"/><path class="cls-2" d="M764.36,209.74A26.43,26.43,0,0,0,727,247.12,264.37,264.37,0,0,1,727,621a26.43,26.43,0,0,0,37.38,37.38,317.22,317.22,0,0,0,0-448.63Z"/><path class="cls-2" d="M427.89,546.21C366,484.37,366,383.74,427.89,321.9a26.43,26.43,0,0,0-37.38-37.38c-82.45,82.45-82.45,216.62,0,299.07a26.43,26.43,0,1,0,37.38-37.38Z"/><path class="cls-2" d="M275.69,434.05a262.64,262.64,0,0,1,77.43-186.93,26.43,26.43,0,0,0-37.38-37.38,317.22,317.22,0,0,0,0,448.63A26.43,26.43,0,1,0,353.12,621,262.64,262.64,0,0,1,275.69,434.05Z"/></g></g></svg>