<svg xmlns="http://www.w3.org/2000/svg" viewBox="0 0 394.09 77.28"><defs><style>.cls-1{fill:#8a2c00;}.cls-2{fill:none;stroke:#fff;stroke-linecap:round;stroke-linejoin:round;stroke-width:4px;}.cls-3{fill:#fff;}</style></defs><g id="Layer_2" data-name="Layer 2"><g id="Layer_1-2" data-name="Layer 1"><rect class="cls-1" x="165.74" width="77.28" height="77.28" rx="10.04"/><path class="cls-2" d="M214,24.23h7.2a2.4,2.4,0,0,1,2.4,2.4V53a4.8,4.8,0,0,1-9.6,0V21.83a2.41,2.41,0,0,0-2.4-2.4h-24a2.4,2.4,0,0,0-2.4,2.4V50.64a7.2,7.2,0,0,0,7.2,7.2h26.41"/><path class="cls-2" d="M194.77,29h9.61"/><path class="cls-2" d="M194.77,38.64h9.61"/><path class="cls-2" d="M194.77,48.24h9.61"/><path class="cls-3" d="M0,56.06V21.31H11.09L25.7,50.44h1.57l-.95.86v-30H32.7V56.06H21.56L7,26.93H5.33l1-.86v30Z"/><path class="cls-3" d="M41.27,56.06V21.31h6.61V56.06Zm5.66-29V21.31H62.3V27Zm0,14.23V35.55H61.45v5.71Zm0,14.8V50.35H62.68v5.71Z"/><path class="cls-3" d="M75.34,56.06,66.49,21.31h7l7.18,30.23-1.85-1.1h4.76l-2.1,1.1,5.67-28.89H93l-7,33.41Zm20.76,0L88.43,22.65h6L101,51.54l-2-1.1h4.67l-1.81,1.1,6.33-30.23h6.61l-7.9,34.75Z"/><path class="cls-3" d="M131.7,57a18.4,18.4,0,0,1-7.78-1.47,11.23,11.23,0,0,1-4.84-4.07,10.65,10.65,0,0,1-1.66-5.88H124a5.27,5.27,0,0,0,.77,2.69,5.39,5.39,0,0,0,2.45,2.12,12.45,12.45,0,0,0,8.59.09,5.52,5.52,0,0,0,2.47-1.88,4.53,4.53,0,0,0,.81-2.64,3.46,3.46,0,0,0-1.57-3,9.91,9.91,0,0,0-4.85-1.41l-3-.24a13.17,13.17,0,0,1-8-3.11,9.17,9.17,0,0,1-3-7.12,9.86,9.86,0,0,1,6-9.45,15.7,15.7,0,0,1,6.64-1.31,15.48,15.48,0,0,1,6.8,1.38,10.5,10.5,0,0,1,4.43,3.88,10.81,10.81,0,0,1,1.57,5.88H137.5a5.26,5.26,0,0,0-.69-2.64,5.06,5.06,0,0,0-2-1.95,7.22,7.22,0,0,0-3.45-.74,7.36,7.36,0,0,0-3.34.67,4.56,4.56,0,0,0-2,1.81,4.75,4.75,0,0,0-.67,2.47,3.93,3.93,0,0,0,1.19,2.83,5.71,5.71,0,0,0,3.76,1.41l3,.28a19.33,19.33,0,0,1,6.52,1.57,10.59,10.59,0,0,1,4.35,3.48,8.93,8.93,0,0,1,1.55,5.28A9.9,9.9,0,0,1,144,51.7a11.06,11.06,0,0,1-4.87,3.88A18.55,18.55,0,0,1,131.7,57Z"/><path class="cls-3" d="M280.72,57a18.13,18.13,0,0,1-8.09-1.66,15.92,15.92,0,0,1-5.5-4.33A18.3,18.3,0,0,1,264,45.16a20.15,20.15,0,0,1-1-6v-1a20.53,20.53,0,0,1,1-6.38A17.23,17.23,0,0,1,267.2,26a15.52,15.52,0,0,1,5.45-4.12,18.38,18.38,0,0,1,7.83-1.55A18.77,18.77,0,0,1,288.69,22a14.14,14.14,0,0,1,5.6,4.76,15.47,15.47,0,0,1,2.52,7.17H290a8.49,8.49,0,0,0-1.69-4A8.19,8.19,0,0,0,285,27.43a11.75,11.75,0,0,0-4.52-.83,11.22,11.22,0,0,0-4.57.88,8.93,8.93,0,0,0-3.33,2.5,11.16,11.16,0,0,0-2,3.8,16.12,16.12,0,0,0-.69,4.86,15.78,15.78,0,0,0,.69,4.76,11.08,11.08,0,0,0,2.07,3.83,9.5,9.5,0,0,0,3.4,2.55,11.44,11.44,0,0,0,4.69.9,11,11,0,0,0,6.59-1.93,7.93,7.93,0,0,0,3.26-5.4h6.81a16,16,0,0,1-2.52,6.81,14.81,14.81,0,0,1-5.62,5A18.34,18.34,0,0,1,280.72,57Z"/><path class="cls-3" d="M299.33,56.06l11.85-34.75h11l12.19,34.75h-7L317.13,25.93,319.56,27h-5.95l2.47-1.05-10,30.13Zm8.28-9.24,2.14-5.71h14.09l2.1,5.71Z"/><path class="cls-3" d="M351.16,57a18.43,18.43,0,0,1-7.78-1.47,11.2,11.2,0,0,1-4.83-4.07,10.66,10.66,0,0,1-1.67-5.88h6.62a5.26,5.26,0,0,0,.76,2.69,5.5,5.5,0,0,0,2.45,2.12,12.45,12.45,0,0,0,8.59.09,5.55,5.55,0,0,0,2.48-1.88,4.53,4.53,0,0,0,.81-2.64A3.48,3.48,0,0,0,357,43a10,10,0,0,0-4.86-1.41l-3-.24a13.22,13.22,0,0,1-8-3.11,9.16,9.16,0,0,1-3-7.12,10.21,10.21,0,0,1,1.57-5.73,10.32,10.32,0,0,1,4.4-3.72,15.73,15.73,0,0,1,6.64-1.31,15.52,15.52,0,0,1,6.81,1.38A10.47,10.47,0,0,1,362,25.57a10.82,10.82,0,0,1,1.58,5.88H357a5.26,5.26,0,0,0-.69-2.64,5,5,0,0,0-2-1.95,7.17,7.17,0,0,0-3.45-.74,7.34,7.34,0,0,0-3.33.67,4.59,4.59,0,0,0-2,1.81,4.84,4.84,0,0,0-.66,2.47A3.89,3.89,0,0,0,346,33.9a5.69,5.69,0,0,0,3.76,1.41l3,.28a19.21,19.21,0,0,1,6.52,1.57,10.62,10.62,0,0,1,4.36,3.48,8.92,8.92,0,0,1,1.54,5.28,10,10,0,0,1-1.71,5.78,11.09,11.09,0,0,1-4.88,3.88A18.52,18.52,0,0,1,351.16,57Z"/><path class="cls-3" d="M367.25,27.26v-6h26.84v6Zm10,28.8V26.31h6.76V56.06Z"/></g></g></svg>