<svg xmlns="http://www.w3.org/2000/svg" version="1.1" xmlns:xlink="http://www.w3.org/1999/xlink" xmlns:svgjs="http://svgjs.dev/svgjs" width="128" height="128" viewBox="0 0 128 128"><g transform="matrix(0.8046875,0,0,0.8046875,12.760752631578946,12.760752631578946)"><svg viewBox="0 0 95 95" data-background-color="#0c1790" preserveAspectRatio="xMidYMid meet" height="128" width="128" xmlns="http://www.w3.org/2000/svg" xmlns:xlink="http://www.w3.org/1999/xlink"><g id="tight-bounds" transform="matrix(1,0,0,1,-0.24049999999999727,-0.24049999999999727)"><svg viewBox="0 0 95.481 95.481" height="95.481" width="95.481"><g><svg viewBox="0 0 95.481 95.481" height="95.481" width="95.481"><g><svg viewBox="0 0 95.481 95.481" height="95.481" width="95.481"><g id="textblocktransform"><svg viewBox="0 0 95.481 95.481" height="95.481" width="95.481" id="textblock"><g><svg viewBox="0 0 95.481 95.481" height="95.481" width="95.481"><g><svg viewBox="0 0 95.481 95.481" height="95.481" width="95.481"><g><svg xmlns="http://www.w3.org/2000/svg" xmlns:xlink="http://www.w3.org/1999/xlink" version="1.1" x="0" y="0" viewBox="5 4 90 90" enable-background="new 0 0 100 100" xml:space="preserve" height="95.481" width="95.481" class="icon-icon-0" data-fill-palette-color="accent" id="icon-0"><g fill="#4c5afd" data-fill-palette-color="accent"><g fill="#4c5afd" data-fill-palette-color="accent"><path d="M90 44H10c-2.761 0-5-2.238-5-5V9c0-2.762 2.239-5 5-5h80c2.761 0 5 2.238 5 5v30C95 41.762 92.761 44 90 44zM15 34h70V14H15V34z" fill="#4c5afd" data-fill-palette-color="accent"></path></g></g><g fill="#4c5afd" data-fill-palette-color="accent"><g fill="#4c5afd" data-fill-palette-color="accent"><path d="M45 94H10c-2.761 0-5-2.238-5-5V53c0-2.762 2.239-5 5-5h35c2.761 0 5 2.238 5 5v36C50 91.762 47.761 94 45 94zM15 84h25V58H15V84z" fill="#4c5afd" data-fill-palette-color="accent"></path></g></g><g fill="#4c5afd" data-fill-palette-color="accent"><g fill="#4c5afd" data-fill-palette-color="accent"><path d="M90 58H59c-2.761 0-5-2.238-5-5s2.239-5 5-5h31c2.761 0 5 2.238 5 5S92.761 58 90 58z" fill="#4c5afd" data-fill-palette-color="accent"></path></g></g><g fill="#4c5afd" data-fill-palette-color="accent"><g fill="#4c5afd" data-fill-palette-color="accent"><path d="M90 76H59c-2.761 0-5-2.238-5-5s2.239-5 5-5h31c2.761 0 5 2.238 5 5S92.761 76 90 76z" fill="#4c5afd" data-fill-palette-color="accent"></path></g></g><g fill="#4c5afd" data-fill-palette-color="accent"><g fill="#4c5afd" data-fill-palette-color="accent"><path d="M90 94H59c-2.761 0-5-2.238-5-5s2.239-5 5-5h31c2.761 0 5 2.238 5 5S92.761 94 90 94z" fill="#4c5afd" data-fill-palette-color="accent"></path></g></g></svg></g></svg></g></svg></g></svg></g></svg></g></svg></g><defs></defs></svg><rect width="95.481" height="95.481" fill="none" stroke="none" visibility="hidden"></rect></g></svg></g></svg>