<?xml version="1.0" encoding="UTF-8" standalone="no"?>
<svg
   width="395"
   height="150"
   viewBox="0 0 340 129"
   class="css-1j8o68f"
   version="1.1"
   id="svg15"
   sodipodi:docname="s21G98e5Zx2.svg"
   xmlns:inkscape="http://www.inkscape.org/namespaces/inkscape"
   xmlns:sodipodi="http://sodipodi.sourceforge.net/DTD/sodipodi-0.dtd"
   xmlns="http://www.w3.org/2000/svg"
   xmlns:svg="http://www.w3.org/2000/svg">
  <sodipodi:namedview
     id="namedview17"
     pagecolor="#ffffff"
     bordercolor="#666666"
     borderopacity="1.0"
     inkscape:pageshadow="2"
     inkscape:pageopacity="0.0"
     inkscape:pagecheckerboard="0" />
  <defs
     id="SvgjsDefs4870" />
  <g
     id="SvgjsG4871"
     featurekey="symbolGroupContainer"
     transform="matrix(1,0,0,1,0,0)"
     fill="#fdce50">
    <rect
       width="120"
       height="129"
       rx="10"
       ry="10"
       id="rect3" />
  </g>
  <g
     id="SvgjsG4872"
     featurekey="monogramFeature-0"
     transform="matrix(2.123142233335149,0,0,2.123142233335149,20,-18.17915429944118)"
     fill="#000">
    <path
       d="M14.88 60 c-9.66 0 -14.88 -1.2 -14.88 -12.54 l0 -20.22 c0 -5.4 3.84 -9.24 9.3 -9.24 c6.42 0 17.4 -0.78 20.58 8.04 c0.96 2.7 0.84 5.94 0.18 8.64 c5.46 1.98 7.62 5.82 7.62 13.2 c0 5.16 -2.52 8.7 -7.5 10.56 c-4.62 1.74 -10.32 1.56 -15.3 1.56 z M9.3 22.14 c-2.4 0 -5.16 1.32 -5.16 5.1 l0 20.04 c0 8.04 2.1 8.58 10.74 8.58 c9.9 0 18.66 -0.06 18.66 -7.98 c0 -5.64 -1.2 -7.86 -4.86 -9.3 c-1.74 4.14 -5.22 8.4 -9.84 8.4 c-5.34 0 -8.46 -5.64 -5.7 -9.96 c1.74 -2.58 5.94 -4.98 12.96 -3.54 c0.48 -2.46 0.42 -4.44 -0.12 -6.06 c-2.04 -5.7 -10.08 -5.28 -16.68 -5.28 z M16.62 39.3 c-1.14 1.8 0.66 4.2 3.18 3.42 c1.74 -0.48 3.72 -2.88 4.86 -5.28 c-2.88 -0.48 -6.6 -0.24 -8.04 1.86 z"
       id="path6" />
  </g>
  <g
     id="SvgjsG4873"
     featurekey="nameFeature-0"
     transform="matrix(1.9640962627745977,0,0,1.9640962627745977,134.34340253843618,12.569155153295171)"
     fill="#fff">
    <path
       d="M17.68 12 c2.76 0 5 2.24 5 5 l0 5.28 c0 1.84 -1.32 3.4 -3.16 3.68 l-0.24 0.04 l0.24 0.04 c1.84 0.32 3.16 1.88 3.16 3.68 l0 5.32 c0 2.72 -2.24 4.96 -5 4.96 l-14.8 0 l0 -28 l14.8 0 z M16.28 32.28 l0 -1.72 c0 -0.76 -0.6 -1.32 -1.32 -1.32 l-5.68 0 l0 4.36 l5.68 0 c0.72 0 1.32 -0.6 1.32 -1.32 z M16.28 21.48 l0 -1.72 c0 -0.72 -0.6 -1.32 -1.32 -1.32 l-5.68 0 l0 4.36 l5.68 0 c0.72 0 1.32 -0.6 1.32 -1.32 z M37.516 12 l0 21.6 l10.32 0 l0 6.4 l-16.72 0 l0 0 l0 -28 l6.4 0 z M71.312 12 c2.72 0 5.04 2.24 5.04 5 l-0.08 18.04 c0 2.76 -2.24 4.96 -5 4.96 l-9.84 0 c-2.72 0 -4.96 -2.2 -4.96 -4.96 l0 -18.04 c0 -2.76 2.24 -5 4.96 -5 l9.88 0 z M69.872 33.6 l0 -15.16 l-7 0 l0 15.16 l7 0 z M104.708 18.44 l-13.4 0 l0 15.16 l7 0 l0 -4.4 l-3.52 0 l0 -6.4 l9.92 0 l0 12.2 c0 2.76 -2.24 5 -5 5 l-9.84 0 c-2.76 0 -4.96 -2.24 -4.96 -5 l0 -18 c0 -2.76 2.2 -5 4.96 -5 l14.84 0 l0 6.44 z"
       id="path9" />
  </g>
</svg>
