<svg xmlns="http://www.w3.org/2000/svg" viewBox="0 0 22.88 28.13"><defs><style>.cls-1{fill:#ed6a6d;}</style></defs><g id="Layer_2" data-name="Layer 2"><g id="Layer_1-2" data-name="Layer 1"><path class="cls-1" d="M12.81,0a10.27,10.27,0,0,1,7.3,2.6,9.07,9.07,0,0,1,2.77,6.94,9.08,9.08,0,0,1-2.73,6.92A10.27,10.27,0,0,1,12.81,19H5.55V26.8a1.27,1.27,0,0,1-.4.93,1.31,1.31,0,0,1-.93.4H1.33a1.31,1.31,0,0,1-.93-.4A1.27,1.27,0,0,1,0,26.8V15a1.27,1.27,0,0,1,.4-.93,1.31,1.31,0,0,1,.93-.4H12.58a5,5,0,0,0,3.65-1.1,3.81,3.81,0,0,0,1.1-3,4.08,4.08,0,0,0-1.14-3.1A5.11,5.11,0,0,0,12.58,5.4H1.33A1.31,1.31,0,0,1,.4,5,1.27,1.27,0,0,1,0,4.07V1.33A1.27,1.27,0,0,1,.4.4,1.27,1.27,0,0,1,1.33,0Z"/></g></g></svg>