<svg id="visual" viewBox="0 0 1400 530" width="1400" height="530" xmlns="http://www.w3.org/2000/svg" xmlns:xlink="http://www.w3.org/1999/xlink" version="1.1"><path d="M0 414L33.3 408.8C66.7 403.7 133.3 393.3 200 383.8C266.7 374.3 333.3 365.7 400 369.2C466.7 372.7 533.3 388.3 600 398.3C666.7 408.3 733.3 412.7 800 408.5C866.7 404.3 933.3 391.7 1000 392.3C1066.7 393 1133.3 407 1200 407C1266.7 407 1333.3 393 1366.7 386L1400 379L1400 531L1366.7 531C1333.3 531 1266.7 531 1200 531C1133.3 531 1066.7 531 1000 531C933.3 531 866.7 531 800 531C733.3 531 666.7 531 600 531C533.3 531 466.7 531 400 531C333.3 531 266.7 531 200 531C133.3 531 66.7 531 33.3 531L0 531Z" fill="#ffecc9"></path><path d="M0 451L33.3 451.3C66.7 451.7 133.3 452.3 200 445.7C266.7 439 333.3 425 400 427.3C466.7 429.7 533.3 448.3 600 447.3C666.7 446.3 733.3 425.7 800 421.5C866.7 417.3 933.3 429.7 1000 439.3C1066.7 449 1133.3 456 1200 455.7C1266.7 455.3 1333.3 447.7 1366.7 443.8L1400 440L1400 531L1366.7 531C1333.3 531 1266.7 531 1200 531C1133.3 531 1066.7 531 1000 531C933.3 531 866.7 531 800 531C733.3 531 666.7 531 600 531C533.3 531 466.7 531 400 531C333.3 531 266.7 531 200 531C133.3 531 66.7 531 33.3 531L0 531Z" fill="#ffe3b0"></path><path d="M0 460L33.3 463C66.7 466 133.3 472 200 471.2C266.7 470.3 333.3 462.7 400 458C466.7 453.3 533.3 451.7 600 459.3C666.7 467 733.3 484 800 487.7C866.7 491.3 933.3 481.7 1000 479C1066.7 476.3 1133.3 480.7 1200 481.2C1266.7 481.7 1333.3 478.3 1366.7 476.7L1400 475L1400 531L1366.7 531C1333.3 531 1266.7 531 1200 531C1133.3 531 1066.7 531 1000 531C933.3 531 866.7 531 800 531C733.3 531 666.7 531 600 531C533.3 531 466.7 531 400 531C333.3 531 266.7 531 200 531C133.3 531 66.7 531 33.3 531L0 531Z" fill="#ffd994"></path></svg>