<svg xmlns="http://www.w3.org/2000/svg" viewBox="0 0 396 131.56">
   <defs>
      <style>
      .cls-1 {
         fill: #ff3838;
      }

      .cls-2 {
         fill: #fff;
      }
      </style>
   </defs>
   <g id="Layer_2" data-name="Layer 2">
      <g id="Layer_1-2" data-name="Layer 1">
         <path class="cls-1" d="M59.91,0Q81.07,0,94.05,12.18t13,32.44Q107,64.89,94.23,77T59.91,89.07H26v36.27a6,6,0,0,1-1.87,4.35,6,6,0,0,1-4.36,1.87H6.22a5.93,5.93,0,0,1-4.35-1.87A5.93,5.93,0,0,1,0,125.34V70.23a6,6,0,0,1,1.87-4.36A5.93,5.93,0,0,1,6.22,64H58.85q11.91,0,17.06-5.15,5.16-4.64,5.16-14.05T75.74,30.31q-5.34-5.07-16.89-5.06H6.22a6,6,0,0,1-4.35-1.87A6,6,0,0,1,0,19V6.22A5.93,5.93,0,0,1,1.87,1.87,5.93,5.93,0,0,1,6.22,0Z" />
         <path class="cls-2" d="M151.1,9.3c10.54,0,17,7.74,17,17.2,0,9.7-6.45,16.85-17,16.85h-9.32V60.8H128.43V9.3Zm-2.31,23c4.76,0,6.62-2.24,6.62-6,0-3.57-1.86-6-6.62-6h-7v12ZM216.23,60.8H200.39L187,38.72V60.8H173.63V9.3h19.72c12.33,0,17.24,7.07,17.24,15.9,0,7.25-4.28,11.49-10.44,12.82ZM197.87,25.34c0-3.15-1.79-5.15-6.72-5.15H187V30.53h4.17C196.08,30.53,197.87,28.5,197.87,25.34ZM243.49,61.5c-15.56,0-26.73-10.55-26.73-26.45S227.93,8.56,243.49,8.56,270.25,19,270.25,35.05,259.08,61.5,243.49,61.5Zm0-12.12c7.78,0,13.59-5.51,13.59-14.33s-5.81-14.37-13.59-14.37S230,26.22,230,35.05,235.75,49.38,243.49,49.38ZM338.43,60.8H325.09l-3.37-36.3L310.83,60.8H302L291.11,24.33l-3.4,36.47H274.29l4.52-51.5h19.51l8.06,26.31L314.54,9.3H334Zm30.8.7C353.68,61.5,342.5,51,342.5,35.05S353.68,8.56,369.23,8.56,396,19,396,35.05,384.82,61.5,369.23,61.5Zm0-12.12c7.78,0,13.6-5.51,13.6-14.33S377,20.68,369.23,20.68s-13.48,5.54-13.48,14.37S361.49,49.38,369.23,49.38Z" />
         <path class="cls-1" d="M142.22,83c13.33,0,20.68,8.16,20.68,20.11s-7.35,20.11-20.68,20.11H128.43V83Zm.29,35.28c9.76,0,15.22-6.09,15.22-15.17s-5.46-15.17-15.22-15.17H133.6v30.34Zm58.77,0,.34,4.94H177.15V83h23.32l.4,5H182.32v9.82H194.9v4.94H182.32v15.57Zm40.33,4.94-3.5-8.16H220.18l-3.5,8.16h-5.51l17.69-40.79h.57l17.7,40.79Zm-19.36-13H236L229.15,94.3Zm41.88,8.05h17l-.35,4.94H259V83h5.16ZM315.73,83v.58L299,118.26h16.43L315,123.2H291.2v-.58l16.72-34.69H291.77l.41-5Z" />
      </g>
   </g>
</svg>