<svg xmlns="http://www.w3.org/2000/svg" version="1.1" xmlns:xlink="http://www.w3.org/1999/xlink" xmlns:svgjs="http://svgjs.dev/svgjs" width="1000" height="1000" viewBox="0 0 1000 1000"><rect width="1000" height="1000" fill="#0c1790"></rect><g transform="matrix(0.7,0,0,0.7,149.57575757575756,457.19386400704013)"><svg viewBox="0 0 396 49" data-background-color="#0c1790" preserveAspectRatio="xMidYMid meet" height="123" width="1000" xmlns="http://www.w3.org/2000/svg" xmlns:xlink="http://www.w3.org/1999/xlink"><g id="tight-bounds" transform="matrix(1,0,0,1,0.2400000000000091,-0.13878439425050715)"><svg viewBox="0 0 395.52 49.27756878850102" height="49.27756878850102" width="395.52"><g><svg viewBox="0 0 467.52 58.248" height="49.27756878850102" width="395.52"><g><svg viewBox="0 0 467.52 58.248" height="58.248" width="467.52"><g id="textblocktransform"><svg viewBox="0 0 467.52 58.248" height="58.248" width="467.52" id="textblock"><g><svg viewBox="0 0 467.52 58.248" height="58.248" width="467.52"><g><svg><g></g><g></g></svg></g><g><svg><g></g><g><svg></svg></g></svg></g><g id="text-0"><svg viewBox="0 0 467.52 58.248" height="58.248" width="467.52"><g><svg xmlns="http://www.w3.org/2000/svg" xmlns:xlink="http://www.w3.org/1999/xlink" version="1.1" x="0" y="0" viewBox="5 4 90 90" enable-background="new 0 0 100 100" xml:space="preserve" height="58.248" width="58.248" class="icon-s-0" data-fill-palette-color="accent" id="s-0"><g fill="#4c5afd" data-fill-palette-color="accent"><g fill="#4c5afd" data-fill-palette-color="accent"><path d="M90 44H10c-2.761 0-5-2.238-5-5V9c0-2.762 2.239-5 5-5h80c2.761 0 5 2.238 5 5v30C95 41.762 92.761 44 90 44zM15 34h70V14H15V34z" fill="#4c5afd" data-fill-palette-color="accent"></path></g></g><g fill="#4c5afd" data-fill-palette-color="accent"><g fill="#4c5afd" data-fill-palette-color="accent"><path d="M45 94H10c-2.761 0-5-2.238-5-5V53c0-2.762 2.239-5 5-5h35c2.761 0 5 2.238 5 5v36C50 91.762 47.761 94 45 94zM15 84h25V58H15V84z" fill="#4c5afd" data-fill-palette-color="accent"></path></g></g><g fill="#4c5afd" data-fill-palette-color="accent"><g fill="#4c5afd" data-fill-palette-color="accent"><path d="M90 58H59c-2.761 0-5-2.238-5-5s2.239-5 5-5h31c2.761 0 5 2.238 5 5S92.761 58 90 58z" fill="#4c5afd" data-fill-palette-color="accent"></path></g></g><g fill="#4c5afd" data-fill-palette-color="accent"><g fill="#4c5afd" data-fill-palette-color="accent"><path d="M90 76H59c-2.761 0-5-2.238-5-5s2.239-5 5-5h31c2.761 0 5 2.238 5 5S92.761 76 90 76z" fill="#4c5afd" data-fill-palette-color="accent"></path></g></g><g fill="#4c5afd" data-fill-palette-color="accent"><g fill="#4c5afd" data-fill-palette-color="accent"><path d="M90 94H59c-2.761 0-5-2.238-5-5s2.239-5 5-5h31c2.761 0 5 2.238 5 5S92.761 94 90 94z" fill="#4c5afd" data-fill-palette-color="accent"></path></g></g></svg></g><g transform="matrix(1,0,0,1,72,3.2354181818181793)"><svg width="395.52" viewBox="1.149999976158142 -35.5 274.9800109863281 36" height="51.77716363636364" data-palette-color="#ffffff"><path d="M17.4 0L12.8 0Q12.3 0 11.95-0.35 11.6-0.7 11.6-1.2L11.6-1.2 11.6-28.85 2.35-28.85Q1.85-28.85 1.5-29.2 1.15-29.55 1.15-30.05L1.15-30.05 1.15-33.75Q1.15-34.3 1.5-34.65 1.85-35 2.35-35L2.35-35 27.85-35Q28.4-35 28.75-34.65 29.1-34.3 29.1-33.75L29.1-33.75 29.1-30.05Q29.1-29.55 28.75-29.2 28.4-28.85 27.85-28.85L27.85-28.85 18.65-28.85 18.65-1.2Q18.65-0.7 18.3-0.35 17.95 0 17.4 0L17.4 0ZM40.05 0L35.35 0Q34.85 0 34.5-0.35 34.15-0.7 34.15-1.2L34.15-1.2 34.15-33.8Q34.15-34.3 34.5-34.65 34.85-35 35.35-35L35.35-35 40.05-35Q40.6-35 40.92-34.65 41.25-34.3 41.25-33.8L41.25-33.8 41.25-1.2Q41.25-0.7 40.92-0.35 40.6 0 40.05 0L40.05 0ZM54.5 0L50.3 0Q49.8 0 49.45-0.35 49.09-0.7 49.09-1.2L49.09-1.2 49.09-33.75Q49.09-34.3 49.45-34.65 49.8-35 50.3-35L50.3-35 54.15-35Q54.84-35 55.17-34.68 55.5-34.35 55.59-34.2L55.59-34.2 70-11.8 70-33.75Q70-34.3 70.32-34.65 70.65-35 71.19-35L71.19-35 75.4-35Q75.94-35 76.3-34.65 76.65-34.3 76.65-33.75L76.65-33.75 76.65-1.25Q76.65-0.7 76.3-0.35 75.94 0 75.44 0L75.44 0 71.55 0Q70.84 0 70.55-0.35 70.25-0.7 70.09-0.8L70.09-0.8 55.75-22.7 55.75-1.2Q55.75-0.7 55.4-0.35 55.05 0 54.5 0L54.5 0ZM99.39 0L94.84 0Q94.34 0 93.99-0.35 93.64-0.7 93.64-1.2L93.64-1.2 93.64-12.5 81.84-33.4Q81.79-33.5 81.74-33.65 81.69-33.8 81.69-33.95L81.69-33.95Q81.69-34.4 81.99-34.7 82.29-35 82.69-35L82.69-35 87.14-35Q87.74-35 88.12-34.7 88.49-34.4 88.64-34.05L88.64-34.05 97.14-19.5 105.59-34.05Q105.79-34.4 106.17-34.7 106.54-35 107.14-35L107.14-35 111.54-35Q111.99-35 112.29-34.7 112.59-34.4 112.59-33.95L112.59-33.95Q112.59-33.8 112.57-33.65 112.54-33.5 112.44-33.4L112.44-33.4 100.64-12.5 100.64-1.2Q100.64-0.7 100.29-0.35 99.94 0 99.39 0L99.39 0ZM133.74 0L118.84 0Q118.34 0 117.99-0.35 117.64-0.7 117.64-1.2L117.64-1.2 117.64-33.75Q117.64-34.3 117.99-34.65 118.34-35 118.84-35L118.84-35 133.34-35Q137.39-35 139.94-33.77 142.49-32.55 143.72-30.4 144.94-28.25 144.94-25.4L144.94-25.4Q144.94-23.5 144.27-22.08 143.59-20.65 142.62-19.75 141.64-18.85 140.69-18.35L140.69-18.35Q142.64-17.45 144.14-15.35 145.64-13.25 145.64-10.35L145.64-10.35Q145.64-7.35 144.29-5 142.94-2.65 140.29-1.33 137.64 0 133.74 0L133.74 0ZM124.59-15.45L124.59-5.3 132.94-5.3Q135.64-5.3 137.04-6.78 138.44-8.25 138.44-10.35L138.44-10.35Q138.44-12.55 137.02-14 135.59-15.45 132.94-15.45L132.94-15.45 124.59-15.45ZM124.59-29.75L124.59-20.65 132.44-20.65Q135.09-20.65 136.42-21.93 137.74-23.2 137.74-25.25L137.74-25.25Q137.74-27.35 136.42-28.55 135.09-29.75 132.44-29.75L132.44-29.75 124.59-29.75ZM174.84 0L153.14 0Q152.64 0 152.29-0.35 151.94-0.7 151.94-1.2L151.94-1.2 151.94-33.8Q151.94-34.3 152.29-34.65 152.64-35 153.14-35L153.14-35 157.79-35Q158.29-35 158.64-34.65 158.99-34.3 158.99-33.8L158.99-33.8 158.99-5.95 174.84-5.95Q175.39-5.95 175.74-5.6 176.09-5.25 176.09-4.7L176.09-4.7 176.09-1.2Q176.09-0.7 175.74-0.35 175.39 0 174.84 0L174.84 0ZM194.39 0.5L194.39 0.5Q189.94 0.5 186.74-0.98 183.54-2.45 181.74-5.53 179.94-8.6 179.79-13.2L179.79-13.2Q179.74-15.35 179.74-17.45 179.74-19.55 179.79-21.75L179.79-21.75Q179.94-26.3 181.79-29.35 183.64-32.4 186.86-33.95 190.09-35.5 194.39-35.5L194.39-35.5Q198.69-35.5 201.94-33.95 205.19-32.4 207.04-29.35 208.89-26.3 209.04-21.75L209.04-21.75Q209.14-19.55 209.14-17.45 209.14-15.35 209.04-13.2L209.04-13.2Q208.89-8.6 207.09-5.53 205.29-2.45 202.06-0.98 198.84 0.5 194.39 0.5ZM194.39-5.25L194.39-5.25Q197.64-5.25 199.69-7.18 201.74-9.1 201.89-13.45L201.89-13.45Q201.99-15.65 201.99-17.53 201.99-19.4 201.89-21.55L201.89-21.55Q201.79-24.45 200.81-26.28 199.84-28.1 198.19-28.93 196.54-29.75 194.39-29.75L194.39-29.75Q192.29-29.75 190.64-28.93 188.99-28.1 188.01-26.28 187.04-24.45 186.94-21.55L186.94-21.55Q186.89-19.4 186.89-17.53 186.89-15.65 186.94-13.45L186.94-13.45Q187.09-9.1 189.14-7.18 191.19-5.25 194.39-5.25ZM229.28 0.5L229.28 0.5Q224.68 0.5 221.46-1.1 218.23-2.7 216.46-5.73 214.68-8.75 214.53-12.95L214.53-12.95Q214.48-15.1 214.48-17.57 214.48-20.05 214.53-22.25L214.53-22.25Q214.68-26.4 216.46-29.35 218.23-32.3 221.51-33.9 224.78-35.5 229.28-35.5L229.28-35.5Q232.93-35.5 235.68-34.52 238.43-33.55 240.26-32.02 242.08-30.5 243.01-28.75 243.93-27 243.98-25.5L243.98-25.5Q244.03-25.05 243.73-24.75 243.43-24.45 242.93-24.45L242.93-24.45 237.78-24.45Q237.28-24.45 237.03-24.65 236.78-24.85 236.58-25.25L236.58-25.25Q236.18-26.3 235.33-27.33 234.48-28.35 233.03-29.05 231.58-29.75 229.28-29.75L229.28-29.75Q225.88-29.75 223.86-27.95 221.83-26.15 221.68-22L221.68-22Q221.53-17.65 221.68-13.2L221.68-13.2Q221.83-8.95 223.91-7.1 225.98-5.25 229.38-5.25L229.38-5.25Q231.63-5.25 233.41-6.05 235.18-6.85 236.21-8.55 237.23-10.25 237.23-12.9L237.23-12.9 237.23-14.45 231.13-14.45Q230.63-14.45 230.28-14.8 229.93-15.15 229.93-15.7L229.93-15.7 229.93-18.35Q229.93-18.9 230.28-19.25 230.63-19.6 231.13-19.6L231.13-19.6 243.08-19.6Q243.63-19.6 243.96-19.25 244.28-18.9 244.28-18.35L244.28-18.35 244.28-13.1Q244.28-8.9 242.46-5.85 240.63-2.8 237.26-1.15 233.88 0.5 229.28 0.5ZM274.88 0L249.93 0Q249.43 0 249.08-0.35 248.73-0.7 248.73-1.25L248.73-1.25 248.73-4.75Q248.73-5.5 249.03-5.95 249.33-6.4 249.48-6.6L249.48-6.6 266.88-29.1 250.43-29.1Q249.88-29.1 249.56-29.45 249.23-29.8 249.23-30.3L249.23-30.3 249.23-33.75Q249.23-34.3 249.56-34.65 249.88-35 250.43-35L250.43-35 274.33-35Q274.88-35 275.23-34.65 275.58-34.3 275.58-33.75L275.58-33.75 275.58-30.3Q275.58-29.7 275.38-29.3 275.18-28.9 274.93-28.55L274.93-28.55 257.88-5.95 274.88-5.95Q275.43-5.95 275.78-5.6 276.13-5.25 276.13-4.7L276.13-4.7 276.13-1.2Q276.13-0.7 275.78-0.35 275.43 0 274.88 0L274.88 0Z" opacity="1" transform="matrix(1,0,0,1,0,0)" fill="#ffffff" class="wordmark-text-0" data-fill-palette-color="primary"></path></svg></g></svg></g></svg></g></svg></g></svg></g></svg></g><defs></defs></svg><rect width="395.52" height="49.27756878850102" fill="none" stroke="none" visibility="hidden"></rect></g></svg></g></svg>