<svg xmlns="http://www.w3.org/2000/svg" viewBox="0 0 198.62 57.62"><defs><style>.cls-1{fill:none;stroke:#f2f2f2;stroke-linecap:round;stroke-linejoin:round;}</style></defs><g id="Layer_2" data-name="Layer 2"><g id="Layer_1-2" data-name="Layer 1"><path class="cls-1" d="M17.46,44.24,30,31.69a1.57,1.57,0,0,1,2.23,0L44.79,44.24M20.62,41.08V55.27a1.57,1.57,0,0,0,1.57,1.58H28V50a1.58,1.58,0,0,1,1.58-1.58H32.7A1.58,1.58,0,0,1,34.28,50v6.83h5.78a1.57,1.57,0,0,0,1.57-1.58V41.08M25.87,56.85H37.43"/><path class="cls-1" d="M3.8,20.4a3.16,3.16,0,1,1,0-6.32,3.94,3.94,0,0,1,4.64-2.77,3.58,3.58,0,0,1,3.09,4.18h.7a2.46,2.46,0,1,1,0,4.91H3.8"/><path class="cls-1" d="M24.53,9.32a2.74,2.74,0,0,1-2.79-2.67A2.74,2.74,0,0,1,24.53,4a3.33,3.33,0,0,1,3.91-2.34A3,3,0,0,1,31,5.17h.6a2.08,2.08,0,0,1,0,4.15H31"/><polyline class="cls-1" points="28.08 6.95 26.9 9.32 28.67 9.32 27.49 11.69"/><path class="cls-1" d="M73.59,9.66a3.23,3.23,0,0,1-3.3-3.16,3.24,3.24,0,0,1,3.3-3.16A3.94,3.94,0,0,1,78.23.57a3.58,3.58,0,0,1,3.08,4.18H82a2.46,2.46,0,0,1,0,4.91H73.59"/><path class="cls-1" d="M136.24,9.8a2.42,2.42,0,0,0,0-4.84h-.69a3.52,3.52,0,0,0-3-4.11,3.89,3.89,0,0,0-4.57,2.73,3.12,3.12,0,0,0-3.3,2.91,3,3,0,0,0,1.85,2.89"/><line class="cls-1" x1="131.4" y1="6.34" x2="131.4" y2="12.56"/><polyline class="cls-1" points="129.33 10.75 131.4 12.82 133.47 10.75"/><path class="cls-1" d="M102.72,16.86a2.67,2.67,0,1,1,0-5.33,3.32,3.32,0,0,1,3.91-2.34,3,3,0,0,1,2.6,3.52h.6a2.08,2.08,0,0,1,0,4.15h-.6"/><polyline class="cls-1" points="106.27 14.49 105.09 16.86 106.86 16.86 105.68 19.23"/><path class="cls-1" d="M48.27,18.61a3.16,3.16,0,1,1,0-6.32,3.94,3.94,0,0,1,4.64-2.77A3.57,3.57,0,0,1,56,13.69h.71a2.46,2.46,0,0,1,0,4.92H48.27"/><path class="cls-1" d="M126.06,28.87a3.16,3.16,0,1,1,0-6.32,3.94,3.94,0,0,1,4.64-2.77A3.57,3.57,0,0,1,133.78,24h.7a2.46,2.46,0,1,1,0,4.92h-8.42"/><path class="cls-1" d="M195.71,22a2.42,2.42,0,0,0,0-4.83H195a3.52,3.52,0,0,0-3-4.12,3.9,3.9,0,0,0-4.57,2.73,3.14,3.14,0,0,0-3.31,2.91,3,3,0,0,0,1.86,2.9"/><line class="cls-1" x1="190.87" y1="18.55" x2="190.87" y2="24.77"/><polyline class="cls-1" points="188.79 22.96 190.87 25.03 192.94 22.96"/><path class="cls-1" d="M157.18,24.07a2.67,2.67,0,1,1,0-5.34,3.34,3.34,0,0,1,3.92-2.34,3,3,0,0,1,2.6,3.53h.59a2.08,2.08,0,1,1,0,4.15h-.59"/><polyline class="cls-1" points="160.74 21.7 159.55 24.07 161.33 24.07 160.15 26.44"/><path class="cls-1" d="M70.3,57.12V50.2a1.6,1.6,0,0,1,1.6-1.59h3.19a1.6,1.6,0,0,1,1.6,1.59v6.92m0,0h6.39V32.34M76.69,57.12H87.34V42.57M61.78,57.12h2.13m25.56,0H63.91m-2.13-17,6.39-2.33m17-6.19-2.13.77m0,8.81,4.26,1.42m2.13.71-2.13-.71M68.17,37.76V31.57H63.91V57.12m4.26-19.36,14.91-5.42"/><path class="cls-1" d="M187.26,47.27A9.75,9.75,0,0,0,177.51,57m9.75-18.41a9.74,9.74,0,0,0-9.75,9.75M187.26,30a9.74,9.74,0,0,0-9.75,9.74m-8.66,7.58c4.78,0,8.66,4.37,8.66,9.75m-8.66-18.41c4.78,0,8.66,4.37,8.66,9.75M168.85,30c4.78,0,8.66,4.36,8.66,9.74m0-16.24v13"/><polyline class="cls-1" points="134.88 43.08 131.78 43.08 145.73 29.13 159.68 43.08 156.58 43.08"/><path class="cls-1" d="M134.88,43.08V53.93A3.1,3.1,0,0,0,138,57h15.5a3.1,3.1,0,0,0,3.1-3.1V43.08"/><path class="cls-1" d="M141.08,57v-9.3a3.1,3.1,0,0,1,3.1-3.1h3.1a3.1,3.1,0,0,1,3.1,3.1V57"/><circle class="cls-1" cx="101.42" cy="54.17" r="2.81"/><circle class="cls-1" cx="116.86" cy="54.17" r="2.81"/><path class="cls-1" d="M116.86,51.37H101.42V31.71H98.61"/><path class="cls-1" d="M101.42,34.52l8.43.6m10,9.23-.2,1.4H101.42"/><path class="cls-1" d="M114.06,35.92h8.42m-4.21-4.21v8.42"/><path class="cls-1" d="M55.75,27.28,52.1,29.77l5.47,3.74,3.65-10L44.8,27.91l3.65,1.24,1.82,3.73L53,30.4"/></g></g></svg>