<svg xmlns="http://www.w3.org/2000/svg" viewBox="0 0 21.77 30.25">
   <defs>
      <style>
      .cls-1 {
         fill: #ff9000;
      }

      .cls-2 {
         fill: #445073;
      }

      .cls-3 {
         fill: #445073;
      }
      </style>
   </defs>
   <g id="Layer_2" data-name="Layer 2">
      <g id="Layer_1-2" data-name="Layer 1">
         <path class="cls-1" d="M10.52,9.44v8.49c0,.74-.22.95-1,.94A9.78,9.78,0,0,1,.25,11.22,10.89,10.89,0,0,1,0,8.94c0-2.67,0-5.33,0-8C0,.2.21,0,1,0H9.64c.64,0,.88.23.88.87Z" />
         <path class="cls-2" d="M10.81,21.25h9.64c.12,0,.23,0,.35,0a.72.72,0,0,1,.78,1A10.63,10.63,0,0,1,21,23.92a10.35,10.35,0,0,1-8,6.2,9.27,9.27,0,0,1-1.49.13c-3.53,0-7.06,0-10.59,0C.25,30.25,0,30,0,29.4q0-3.64,0-7.29c0-.65.22-.86.88-.86Z" />
         <path class="cls-3" d="M17.34,18.87H13.75c-.59,0-.85-.25-.85-.83q0-3.91,0-7.82c0-.63.4-1,1-.79a10.46,10.46,0,0,1,7.84,8.31c.17.77-.15,1.17-.94,1.14C19.64,18.85,18.49,18.87,17.34,18.87Z" />
      </g>
   </g>
</svg>