<svg xmlns="http://www.w3.org/2000/svg" viewBox="0 0 199.49 83.63">
   <defs>
      <style>
      .cls-1 {
         fill: #ff9000;
      }

      .cls-2 {
         fill: #445073;
      }

      .cls-3 {
         fill: #445073;
      }
      </style>
   </defs>
   <g id="Layer_2" data-name="Layer 2">
      <g id="Layer_1-2" data-name="Layer 1">
         <path class="cls-1" d="M28.51,25.58v23c0,2-.59,2.56-2.6,2.55-11.84-.06-22.76-9-25.24-20.74A31.33,31.33,0,0,1,0,24.22C0,17,0,9.77,0,2.55,0,.55.58,0,2.61,0h23.5c1.75,0,2.39.62,2.39,2.36Q28.52,14,28.51,25.58Z" />
         <path class="cls-2" d="M29.3,57.59H55.41c.32,0,.65,0,1,0a2,2,0,0,1,2.1,2.71,27.54,27.54,0,0,1-1.56,4.53c-4.36,9.36-11.6,15-21.84,16.79a23.44,23.44,0,0,1-4,.35c-9.57,0-19.14,0-28.72,0C.68,82,0,81.35,0,79.67q0-9.89,0-19.75c0-1.76.59-2.33,2.4-2.33Z" />
         <path class="cls-3" d="M47,51.15H37.26c-1.61,0-2.31-.69-2.31-2.27q0-10.6,0-21.19C35,26,36,25.1,37.65,25.56c11.56,3.27,18.61,10.83,21.23,22.53.46,2.08-.39,3.15-2.55,3.08C53.22,51.08,50.1,51.15,47,51.15Z" />
         <path class="cls-1" d="M99.28,29.17a11.35,11.35,0,0,1-.55,3.61,9.5,9.5,0,0,1-3.84,5,13.43,13.43,0,0,1-3,1.48,19.24,19.24,0,0,1-3.46.85,28.25,28.25,0,0,1-4.09.27H74.43A2.11,2.11,0,0,1,72.17,38V5.36a2.34,2.34,0,0,1,.65-1.84A2.39,2.39,0,0,1,74.43,3h9.4a24.93,24.93,0,0,1,5.83.58,11.39,11.39,0,0,1,4,1.75,7.77,7.77,0,0,1,2.5,3,9.62,9.62,0,0,1,.87,4.23A9.26,9.26,0,0,1,96.7,15,7.48,7.48,0,0,1,94.05,19a8.25,8.25,0,0,1-2.21,1.21,9.93,9.93,0,0,1,2.94,1,8.44,8.44,0,0,1,3.92,4.55A9.81,9.81,0,0,1,99.28,29.17ZM89.44,13.4a5.55,5.55,0,0,0-.35-2,3.62,3.62,0,0,0-1-1.49A4.69,4.69,0,0,0,86.3,9a9.76,9.76,0,0,0-2.82-.32H79.63v9.72h4.25A7.35,7.35,0,0,0,86.52,18a4.58,4.58,0,0,0,1.63-1.07,4.3,4.3,0,0,0,1-1.6A5.77,5.77,0,0,0,89.44,13.4Zm1.94,16a5.9,5.9,0,0,0-.44-2.33,4.37,4.37,0,0,0-1.27-1.72,5.89,5.89,0,0,0-2.14-1.07,12.54,12.54,0,0,0-3.38-.38H79.63V34.58h5.5a9.38,9.38,0,0,0,2.68-.33,5.63,5.63,0,0,0,1.88-1,4.44,4.44,0,0,0,1.24-1.62A5.16,5.16,0,0,0,91.38,29.43Z" />
         <path class="cls-1" d="M126,37.21a12,12,0,0,1-.07,1.46,4.21,4.21,0,0,1-.22,1,1.33,1.33,0,0,1-.36.57.85.85,0,0,1-.51.17H107.64a2.11,2.11,0,0,1-2.26-2.4V4a.78.78,0,0,1,.19-.52,1.27,1.27,0,0,1,.62-.38,6.88,6.88,0,0,1,1.17-.23,15.65,15.65,0,0,1,1.84-.09,15.49,15.49,0,0,1,1.85.09,6.94,6.94,0,0,1,1.16.23,1.32,1.32,0,0,1,.62.38A.78.78,0,0,1,113,4V34.12h11.77a.9.9,0,0,1,.51.15,1.23,1.23,0,0,1,.36.53,3.71,3.71,0,0,1,.22,1A12,12,0,0,1,126,37.21Z" />
         <path class="cls-1" d="M163.07,21.24a27.71,27.71,0,0,1-1.16,8.33,16.86,16.86,0,0,1-3.44,6.24,14.84,14.84,0,0,1-5.66,3.9,20.86,20.86,0,0,1-7.8,1.35,23.06,23.06,0,0,1-7.62-1.14A13.27,13.27,0,0,1,132,36.43a14.84,14.84,0,0,1-3.26-6,30.06,30.06,0,0,1-1.08-8.56,27,27,0,0,1,1.15-8.18,16.52,16.52,0,0,1,3.45-6.17,15.05,15.05,0,0,1,5.65-3.91,21,21,0,0,1,7.83-1.36,22.88,22.88,0,0,1,7.5,1.13,13.2,13.2,0,0,1,5.45,3.47A15.17,15.17,0,0,1,162,12.81,28.5,28.5,0,0,1,163.07,21.24Zm-8,.41a28.52,28.52,0,0,0-.46-5.37A11.65,11.65,0,0,0,153,12.14a7.6,7.6,0,0,0-3-2.66,10.29,10.29,0,0,0-4.63-.94,9.41,9.41,0,0,0-4.69,1.06,8.58,8.58,0,0,0-3,2.82,11.66,11.66,0,0,0-1.63,4.12,25,25,0,0,0-.48,5,30.5,30.5,0,0,0,.46,5.51,11.78,11.78,0,0,0,1.57,4.18,7.13,7.13,0,0,0,3,2.65,10.44,10.44,0,0,0,4.65.91,9.6,9.6,0,0,0,4.69-1,8.37,8.37,0,0,0,3-2.84,11.71,11.71,0,0,0,1.63-4.18A25.67,25.67,0,0,0,155.08,21.65Z" />
         <path class="cls-1" d="M199.49,8.77a12.23,12.23,0,0,1-.07,1.45,4.46,4.46,0,0,1-.21,1,1,1,0,0,1-.31.5.72.72,0,0,1-.45.15,2.8,2.8,0,0,1-1.22-.52A17.26,17.26,0,0,0,195,10.19a24.1,24.1,0,0,0-3.32-1.13,17,17,0,0,0-4.47-.52,12.46,12.46,0,0,0-4.91.94,10.8,10.8,0,0,0-3.77,2.66,11.93,11.93,0,0,0-2.4,4.14,16.17,16.17,0,0,0-.84,5.34,17.07,17.07,0,0,0,.86,5.65,11.54,11.54,0,0,0,2.38,4.1,9.82,9.82,0,0,0,3.69,2.48,13,13,0,0,0,4.76.84,10.71,10.71,0,0,0,2.52-.29,9.25,9.25,0,0,0,2.31-.86V24.86h-7.08c-.35,0-.62-.22-.82-.65a6.12,6.12,0,0,1-.28-2.22,10.46,10.46,0,0,1,.07-1.36,3.79,3.79,0,0,1,.21-.88,1.37,1.37,0,0,1,.35-.49.72.72,0,0,1,.47-.16h12.64a2,2,0,0,1,.82.16,1.86,1.86,0,0,1,.64.48,2.23,2.23,0,0,1,.42.76,3.56,3.56,0,0,1,.14,1v14.9a3.62,3.62,0,0,1-.3,1.52,2.18,2.18,0,0,1-1.25,1c-.62.25-1.4.51-2.32.78s-1.89.5-2.88.69-2,.34-3,.43-2,.15-3,.15a23.36,23.36,0,0,1-8-1.29,15.75,15.75,0,0,1-9.76-9.69,22.77,22.77,0,0,1-1.31-8,23.26,23.26,0,0,1,1.39-8.26,17.54,17.54,0,0,1,3.94-6.22A16.94,16.94,0,0,1,179,3.68a22.51,22.51,0,0,1,8-1.36,26,26,0,0,1,7.91,1.14,13.55,13.55,0,0,1,2.48,1,6.41,6.41,0,0,1,1.37,1,2.45,2.45,0,0,1,.57,1.14A10.66,10.66,0,0,1,199.49,8.77Z" />
         <path class="cls-3" d="M88.49,72.62c0,.33,0,.61,0,.84a5.77,5.77,0,0,1-.09.59,1.94,1.94,0,0,1-.16.43,2.31,2.31,0,0,1-.32.4,4.07,4.07,0,0,1-.83.58,10,10,0,0,1-1.52.68,12.41,12.41,0,0,1-2,.54,14.21,14.21,0,0,1-7.22-.59,9.33,9.33,0,0,1-3.58-2.41,10.81,10.81,0,0,1-2.27-4,18.14,18.14,0,0,1-.78-5.59,17.64,17.64,0,0,1,.86-5.77,12.08,12.08,0,0,1,2.42-4.24,10.22,10.22,0,0,1,3.74-2.6,12.61,12.61,0,0,1,4.79-.89,11.41,11.41,0,0,1,2.05.18,12.39,12.39,0,0,1,1.82.46,10.08,10.08,0,0,1,1.51.66,4.88,4.88,0,0,1,.94.64,2.68,2.68,0,0,1,.36.45,1.57,1.57,0,0,1,.16.45,5.1,5.1,0,0,1,.09.65q0,.38,0,.93c0,.39,0,.73,0,1a3,3,0,0,1-.14.67A.91.91,0,0,1,88,57a.45.45,0,0,1-.31.12,1.34,1.34,0,0,1-.75-.34,11.34,11.34,0,0,0-1.17-.77,9.59,9.59,0,0,0-1.72-.77,7.24,7.24,0,0,0-2.37-.34,5.73,5.73,0,0,0-2.71.62,5.8,5.8,0,0,0-2,1.77,8.34,8.34,0,0,0-1.27,2.79,16.32,16.32,0,0,0,0,7.57A7.54,7.54,0,0,0,77,70.4,5.22,5.22,0,0,0,79.09,72a6.82,6.82,0,0,0,2.73.53,7.64,7.64,0,0,0,2.38-.33,9,9,0,0,0,1.72-.72c.48-.26.88-.5,1.19-.71a1.4,1.4,0,0,1,.71-.31.58.58,0,0,1,.32.08.59.59,0,0,1,.2.31,3.59,3.59,0,0,1,.12.66C88.48,71.77,88.49,72.15,88.49,72.62Z" />
         <path class="cls-3" d="M109.69,66.85a13.53,13.53,0,0,1-.59,4.1,8.67,8.67,0,0,1-1.79,3.19,8.14,8.14,0,0,1-3,2.07,11.42,11.42,0,0,1-4.23.73A11.64,11.64,0,0,1,96,76.29,7.46,7.46,0,0,1,93.1,74.4a7.85,7.85,0,0,1-1.69-3.06,14,14,0,0,1-.55-4.13,13.33,13.33,0,0,1,.6-4.11,8.69,8.69,0,0,1,1.8-3.19,8,8,0,0,1,3-2.06,11.29,11.29,0,0,1,4.22-.73,12,12,0,0,1,4.1.64,7.25,7.25,0,0,1,2.86,1.88,7.85,7.85,0,0,1,1.69,3.06A14.53,14.53,0,0,1,109.69,66.85Zm-5.1.2a12.66,12.66,0,0,0-.21-2.39,5.64,5.64,0,0,0-.7-1.9,3.44,3.44,0,0,0-1.31-1.26,4.11,4.11,0,0,0-2.06-.46,4.35,4.35,0,0,0-1.93.41A3.51,3.51,0,0,0,97,62.63a5.58,5.58,0,0,0-.79,1.87A10.44,10.44,0,0,0,96,67a11.78,11.78,0,0,0,.22,2.39,5.91,5.91,0,0,0,.69,1.91,3.45,3.45,0,0,0,1.32,1.25,4.33,4.33,0,0,0,2,.44,4.38,4.38,0,0,0,2-.41,3.27,3.27,0,0,0,1.36-1.17,5.26,5.26,0,0,0,.79-1.86A11,11,0,0,0,104.59,67.05Z" />
         <path class="cls-3" d="M130.27,75.82a.57.57,0,0,1-.1.34.72.72,0,0,1-.34.25,3,3,0,0,1-.65.14,7.36,7.36,0,0,1-1,0,7.65,7.65,0,0,1-1,0,2.57,2.57,0,0,1-.64-.14.69.69,0,0,1-.33-.25.57.57,0,0,1-.1-.34v-2a11.1,11.1,0,0,1-3,2.36,6.69,6.69,0,0,1-3.12.79,7.12,7.12,0,0,1-3-.59,5.19,5.19,0,0,1-2-1.62,6.45,6.45,0,0,1-1.09-2.37,15.06,15.06,0,0,1-.32-3.36V58.25a.61.61,0,0,1,.11-.35.73.73,0,0,1,.39-.24,3.17,3.17,0,0,1,.77-.15,10.14,10.14,0,0,1,1.19,0,10,10,0,0,1,1.2,0,3.08,3.08,0,0,1,.76.15.84.84,0,0,1,.41.24.61.61,0,0,1,.11.35v9.92a9.34,9.34,0,0,0,.18,2.11,3.75,3.75,0,0,0,.54,1.25,2.42,2.42,0,0,0,.93.81,2.84,2.84,0,0,0,1.31.28,3.23,3.23,0,0,0,1.9-.68,11.2,11.2,0,0,0,2-2V58.25a.54.54,0,0,1,.11-.35.73.73,0,0,1,.39-.24,3.08,3.08,0,0,1,.76-.15,10,10,0,0,1,1.2,0,10.12,10.12,0,0,1,1.2,0,3.08,3.08,0,0,1,.75.15.82.82,0,0,1,.39.24.55.55,0,0,1,.12.35Z" />
         <path class="cls-3" d="M152.94,66.77a16.58,16.58,0,0,1-.5,4.23A9.74,9.74,0,0,1,151,74.2a6.43,6.43,0,0,1-2.4,2,7.4,7.4,0,0,1-3.29.71,6.22,6.22,0,0,1-1.41-.15,5.58,5.58,0,0,1-1.24-.45,8.19,8.19,0,0,1-1.19-.76,14,14,0,0,1-1.22-1.06v8.27a.55.55,0,0,1-.12.35.82.82,0,0,1-.41.27,3.5,3.5,0,0,1-.75.17,14.55,14.55,0,0,1-2.41,0,3.36,3.36,0,0,1-.75-.17.86.86,0,0,1-.41-.27.55.55,0,0,1-.12-.35V58.25a.58.58,0,0,1,.45-.59,2.31,2.31,0,0,1,.65-.15,10.13,10.13,0,0,1,2,0,2.5,2.5,0,0,1,.65.15.69.69,0,0,1,.34.24.6.6,0,0,1,.1.35v2.06A17,17,0,0,1,141,58.93a9.18,9.18,0,0,1,1.5-1,6.66,6.66,0,0,1,1.59-.6,7.41,7.41,0,0,1,1.74-.2,6.72,6.72,0,0,1,3.29.76A6.32,6.32,0,0,1,151.3,60,9.52,9.52,0,0,1,152.55,63,17.23,17.23,0,0,1,152.94,66.77Zm-5.16.36a13.7,13.7,0,0,0-.17-2.16,6.3,6.3,0,0,0-.57-1.84A3.48,3.48,0,0,0,146,61.84a2.73,2.73,0,0,0-1.65-.48,3.27,3.27,0,0,0-1,.15,3.74,3.74,0,0,0-1,.48,6.91,6.91,0,0,0-1,.87,12.33,12.33,0,0,0-1.12,1.31V70a11.32,11.32,0,0,0,2,2,3.19,3.19,0,0,0,2,.72,2.7,2.7,0,0,0,1.64-.49,3.88,3.88,0,0,0,1.11-1.29,6.19,6.19,0,0,0,.64-1.8A9.8,9.8,0,0,0,147.78,67.13Z" />
         <path class="cls-3" d="M174.67,66.85a13.53,13.53,0,0,1-.59,4.1,8.55,8.55,0,0,1-1.8,3.19,8,8,0,0,1-3,2.07,11.44,11.44,0,0,1-4.24.73,11.62,11.62,0,0,1-4.07-.65,7.46,7.46,0,0,1-2.88-1.89,7.85,7.85,0,0,1-1.69-3.06,14,14,0,0,1-.55-4.13,13.33,13.33,0,0,1,.6-4.11,8.69,8.69,0,0,1,1.8-3.19,8,8,0,0,1,3-2.06,11.38,11.38,0,0,1,4.23-.73,12,12,0,0,1,4.1.64,7.25,7.25,0,0,1,2.86,1.88,7.85,7.85,0,0,1,1.69,3.06A14.53,14.53,0,0,1,174.67,66.85Zm-5.1.2a12.66,12.66,0,0,0-.21-2.39,5.64,5.64,0,0,0-.7-1.9,3.52,3.52,0,0,0-1.31-1.26,4.11,4.11,0,0,0-2.06-.46,4.35,4.35,0,0,0-1.93.41A3.51,3.51,0,0,0,162,62.63a5.58,5.58,0,0,0-.79,1.87,10.44,10.44,0,0,0-.27,2.49,11.78,11.78,0,0,0,.22,2.39,5.91,5.91,0,0,0,.69,1.91,3.49,3.49,0,0,0,1.31,1.25,4.92,4.92,0,0,0,4,0,3.34,3.34,0,0,0,1.36-1.17,5.26,5.26,0,0,0,.79-1.86A11,11,0,0,0,169.57,67.05Z" />
         <path class="cls-3" d="M195.37,75.82a.52.52,0,0,1-.12.34.89.89,0,0,1-.4.25,3.47,3.47,0,0,1-.75.14,10.25,10.25,0,0,1-1.19,0,10.49,10.49,0,0,1-1.22,0,3.47,3.47,0,0,1-.75-.14.89.89,0,0,1-.4-.25.52.52,0,0,1-.12-.34v-10a8.83,8.83,0,0,0-.18-2,4.08,4.08,0,0,0-.55-1.25,2.37,2.37,0,0,0-.91-.81,2.87,2.87,0,0,0-1.31-.28,3.27,3.27,0,0,0-1.91.69,10.54,10.54,0,0,0-2,2V75.82a.52.52,0,0,1-.12.34.89.89,0,0,1-.4.25,3.71,3.71,0,0,1-.76.14,14.55,14.55,0,0,1-2.41,0,3.73,3.73,0,0,1-.75-.14.93.93,0,0,1-.41-.25.58.58,0,0,1-.11-.34V58.25a.68.68,0,0,1,.09-.35.71.71,0,0,1,.36-.24,2.48,2.48,0,0,1,.66-.15,7.29,7.29,0,0,1,1,0,7.83,7.83,0,0,1,1,0,2.15,2.15,0,0,1,.64.15.63.63,0,0,1,.32.24.6.6,0,0,1,.1.35v2a11.27,11.27,0,0,1,3-2.36,6.81,6.81,0,0,1,3.15-.79,7,7,0,0,1,3,.59,5.37,5.37,0,0,1,2,1.61A6.61,6.61,0,0,1,195,61.69a14,14,0,0,1,.34,3.27Z" />
      </g>
   </g>
</svg>