<svg xmlns="http://www.w3.org/2000/svg" viewBox="0 0 429 97.99">
   <defs>
      <style>
      .cls-1 {
         fill: #ffb941;
      }

      .cls-2 {
         fill: #fff;
      }

      .cls-3 {
         fill: #fff;
      }
      </style>
   </defs>
   <g id="Layer_2" data-name="Layer 2">
      <g id="Layer_1-2" data-name="Layer 1">
         <g id="SvgjsG10779">
            <path class="cls-1" d="M88.07,0h37.74C123.72,3.49,109.6,28.1,96,51.72c-8,13.84-16.78,29.36-26.7,46.27H56.76c1.11-1.81,13.56-23.76,25.86-45,7.13-12.44,15.23-26.56,24.32-42.08H94.36C76.75,41.1,66.54,59.13,50.46,87.09,49.49,85.41-.14.14,0,0H37.74l19,32.71-6.3,10.9-19-32.71H18.87C21.67,15.38,47.81,61,50.46,65.28l27.4-47.53Z" />
         </g>
         <g id="SvgjsG10780">
            <path class="cls-2" d="M181.43,12.12h9.16L173.94,49.6h-7.87L149.42,12.12h9.15l11.46,27Zm32.13-.54c10.6,0,19.49,7.87,19.49,19.28s-8.89,19.27-19.49,19.27-19.49-7.87-19.49-19.27S203,11.58,213.56,11.58Zm0,30.47c6.05,0,10.54-4.71,10.54-11.19s-4.49-11.19-10.54-11.19-10.5,4.71-10.5,11.19S207.51,42.05,213.56,42.05Zm45.93-29.93h8.62V36c0,9-6.74,14.4-14.67,14.4S238.72,45,238.72,36V12.12h8.62V36.05c0,5.14,3.48,6.26,6.1,6.26s6.05-1.12,6.05-6.26Zm46.69,33.46a18.83,18.83,0,0,1-12.85,4.55c-10.6,0-19.59-7.87-19.59-19.27s9-19.28,19.59-19.28A18.93,18.93,0,0,1,306,16l-5.2,5.83a12.62,12.62,0,0,0-6.9-2.19c-6.59,0-11.14,4.71-11.14,11.19s4.55,11.19,11.14,11.19A11.88,11.88,0,0,0,301,39.53Zm27.89-33.46h8.62V49.6h-8.62V34.77H319.89V49.6h-8.62V12.12h8.62V26.84h14.18Zm23.67,0V49.6h-8.62V12.12ZM388.26,20H373.05v7.12h12.48v7.33H373.05V49.6h-8.89V12.12h24.1ZM429,12.12,414.65,34V49.6H406V34L391.74,12.12h9.74l8.89,14,8.89-14Z" />
         </g>
         <g id="SvgjsG10781">
            <path class="cls-3" d="M155.8,88.51a6.57,6.57,0,0,1-6.38-4.19l2.58-.79A4.1,4.1,0,0,0,156,86.12c1.62,0,2.63-.83,2.63-1.74,0-.73-.49-1.23-1.82-1.66l-3.53-1.11c-1.82-.57-3.14-1.73-3.12-3.51,0-2.15,2.07-4,4.95-4A6.21,6.21,0,0,1,161,77.68l-2.51.73a3.75,3.75,0,0,0-3.42-1.89c-1.36,0-2.23.69-2.23,1.5,0,.61.42,1,1.33,1.3l3.43,1.11c2.11.65,3.71,1.54,3.71,3.79S159.11,88.51,155.8,88.51Zm25-14.1h2.59V88.23h-2.7v-9.1l-4.41,6.1-4.4-6.1v9.1h-2.71V74.41h2.59l4.52,6.53ZM202,88.23l-1.12-3h-6.22l-1.15,3h-2.8L196,74.41h3.52l5.31,13.82Zm-6.45-5.39h4.42L197.72,77Zm25.26,5.39-3.14-4.84h-2.94v4.84H212V74.41h6.74a4.57,4.57,0,0,1,4.74,4.5,4.39,4.39,0,0,1-3,4.2l3.43,5.12Zm-6.08-11.4V81h3.87a2.14,2.14,0,0,0,2.29-2.11,2.12,2.12,0,0,0-2.19-2.08Zm27.91-2.42v2.44H238V88.23h-2.7V76.85h-4.64V74.41Zm23.84,14.1a6.57,6.57,0,0,1-6.38-4.19l2.59-.79a4.08,4.08,0,0,0,4,2.59c1.61,0,2.62-.83,2.62-1.74,0-.73-.49-1.23-1.82-1.66l-3.53-1.11c-1.82-.57-3.14-1.73-3.12-3.51,0-2.15,2.07-4,5-4a6.21,6.21,0,0,1,5.94,3.55l-2.51.73a3.73,3.73,0,0,0-3.41-1.89c-1.37,0-2.24.69-2.24,1.5,0,.61.42,1,1.33,1.3l3.43,1.11c2.12.65,3.72,1.54,3.72,3.79S269.75,88.51,266.44,88.51ZM290,88.23l-1.13-3H282.6l-1.15,3h-2.8l5.29-13.82h3.52l5.31,13.82Zm-6.46-5.39h4.42L285.7,77Zm26.19-8.43h3l-5.45,13.82h-3L298.8,74.41h3l4,10.38Zm10.24,13.82V74.41h2.75V88.23Zm20.37-13.82H343V88.23h-2.24l-6.95-9v9h-2.7V74.41h2.23l7,9Zm24.93,6.14v1.38c0,3.91-2.84,6.58-7,6.58a7.19,7.19,0,1,1-.12-14.38,6.8,6.8,0,0,1,6.64,4.23l-2.51.71a4.19,4.19,0,0,0-4.11-2.39,4.46,4.46,0,0,0-4.52,4.6,4.56,4.56,0,0,0,4.82,4.7,3.7,3.7,0,0,0,4-3.1h-4.25V80.55Zm13.52,8a6.57,6.57,0,0,1-6.38-4.19l2.59-.79a4.08,4.08,0,0,0,3.95,2.59c1.61,0,2.62-.83,2.62-1.74,0-.73-.49-1.23-1.81-1.66l-3.54-1.11c-1.82-.57-3.14-1.73-3.12-3.51,0-2.15,2.07-4,5-4A6.21,6.21,0,0,1,384,77.68l-2.51.73A3.73,3.73,0,0,0,378,76.52c-1.37,0-2.23.69-2.23,1.5,0,.61.41,1,1.32,1.3l3.43,1.11c2.12.65,3.72,1.54,3.72,3.79s-2.21,4.29-5.53,4.29Z" />
         </g>
      </g>
   </g>
</svg>