<?xml version="1.0" standalone="no"?>
<!DOCTYPE svg PUBLIC "-//W3C//DTD SVG 20010904//EN"
 "http://www.w3.org/TR/2001/REC-SVG-20010904/DTD/svg10.dtd">
<svg version="1.0" xmlns="http://www.w3.org/2000/svg" width="174.000000pt" height="71.000000pt" viewBox="0 0 174.000000 71.000000" preserveAspectRatio="xMidYMid meet">
   <g transform="translate(0.000000,71.000000) scale(0.100000,-0.100000)" fill="#000" stroke="none">
      <path d="M1300 679 c-39 -20 -48 -28 -30 -26 l25 2 3 -215 c2 -193 1 -216 -15
-227 -14 -11 -5 -13 53 -13 52 1 65 3 52 11 -16 9 -18 32 -18 249 0 131 -3
241 -7 243 -5 3 -33 -8 -63 -24z" />
      <path d="M236 610 c-38 -90 -158 -346 -172 -367 -8 -13 -25 -28 -37 -33 -15
-6 4 -9 63 -9 82 0 84 0 53 14 -42 18 -43 47 -6 132 l28 62 62 1 61 0 40 -74
c56 -103 58 -114 30 -125 -17 -7 1 -10 67 -10 84 -1 88 0 67 15 -13 9 -64 99
-117 202 -51 103 -100 196 -108 207 -15 19 -16 19 -31 -15z m19 -130 l25 -50
-50 0 c-27 0 -50 2 -50 4 0 10 40 96 44 96 3 0 17 -22 31 -50z" />
      <path d="M1126 614 c-31 -30 -8 -69 36 -62 17 2 24 11 26 32 5 43 -32 61 -62
30z" />
      <path d="M568 454 c-54 -27 -59 -33 -24 -27 29 6 36 -15 36 -114 0 -60 -4 -77
-20 -93 l-20 -20 73 1 c53 0 66 3 50 9 -22 9 -23 15 -23 104 0 86 2 96 20 106
33 18 73 8 87 -20 7 -14 13 -55 13 -92 0 -55 -4 -72 -20 -88 l-20 -20 73 1
c53 0 66 3 50 9 -22 9 -23 15 -23 104 0 104 7 116 64 116 40 0 56 -34 56 -120
0 -78 -5 -93 -30 -103 -8 -3 19 -5 60 -5 41 0 68 2 60 5 -26 10 -30 26 -30
130 0 99 -1 102 -27 123 -35 27 -86 21 -122 -14 l-24 -25 -29 31 c-24 26 -34
30 -63 25 -19 -3 -49 -15 -65 -27 -17 -12 -30 -17 -30 -13 0 5 -6 16 -12 25
-12 15 -17 14 -60 -8z" />
      <path d="M1115 445 c-27 -14 -40 -22 -28 -19 32 7 43 -22 43 -110 0 -63 -4
-80 -20 -96 l-20 -20 73 1 c53 0 66 3 50 9 -22 9 -23 14 -23 135 0 93 -3 125
-12 125 -7 0 -35 -11 -63 -25z" />
      <path d="M1428 463 c7 -3 44 -67 82 -143 l69 -137 -29 -61 c-31 -65 -53 -80
-94 -61 -22 10 -29 10 -42 -2 -17 -18 -9 -48 15 -51 79 -7 112 37 196 263 56
150 71 178 98 189 16 6 6 9 -42 9 l-63 1 23 -19 23 -19 -24 -76 c-13 -43 -27
-79 -31 -81 -3 -3 -25 36 -47 86 l-41 90 22 9 c16 6 1 9 -53 9 -41 -1 -69 -3
-62 -6z" />
   </g>
</svg>