<svg xmlns="http://www.w3.org/2000/svg" viewBox="0 0 339.96 52.92">
  <defs>
    <style>
    .cls-1 {
      fill: #e4ff66;
    }
    </style>
  </defs>
  <g id="Layer_2" data-name="Layer 2">
    <g id="Layer_1-2" data-name="Layer 1">
      <path class="cls-1" d="M50,23.52h-47A2.94,2.94,0,0,1,0,20.58V2.94A2.94,2.94,0,0,1,2.94,0H50a2.94,2.94,0,0,1,2.94,2.94V20.58A2.94,2.94,0,0,1,50,23.52ZM5.88,17.64H47V5.88H5.88Z" />
      <path class="cls-1" d="M23.52,52.92H2.94A2.94,2.94,0,0,1,0,50V28.81a2.94,2.94,0,0,1,2.94-2.94H23.52a2.94,2.94,0,0,1,2.94,2.94V50A2.94,2.94,0,0,1,23.52,52.92ZM5.88,47h14.7V31.75H5.88Z" />
      <path class="cls-1" d="M50,31.75H31.75a2.94,2.94,0,0,1,0-5.88H50a2.94,2.94,0,1,1,0,5.88Z" />
      <path class="cls-1" d="M50,42.33H31.75a2.94,2.94,0,0,1,0-5.88H50a2.94,2.94,0,1,1,0,5.88Z" />
      <path class="cls-1" d="M50,52.92H31.75a2.94,2.94,0,0,1,0-5.88H50a2.94,2.94,0,1,1,0,5.88Z" />
      <path fill="#fff" d="M85.38,43.45H80a1.16,1.16,0,0,1-1.21-1.22h0v-26H70a1.16,1.16,0,0,1-.83-.34,1.18,1.18,0,0,1-.34-.88h0V10.68a1.18,1.18,0,0,1,.34-.87A1.12,1.12,0,0,1,70,9.47H95.38a1.18,1.18,0,0,1,.88.34,1.21,1.21,0,0,1,.33.87h0v4.37a1.15,1.15,0,0,1-1.21,1.22H86.6v26a1.22,1.22,0,0,1-.34.88,1.18,1.18,0,0,1-.88.34Zm22.62,0h-5.58a1.13,1.13,0,0,1-.83-.34,1.22,1.22,0,0,1-.34-.88h0V10.68a1.22,1.22,0,0,1,.34-.87,1.13,1.13,0,0,1,.83-.34H108a1.12,1.12,0,0,1,.83.34,1.22,1.22,0,0,1,.34.87h0V42.23a1.22,1.22,0,0,1-.34.88,1.12,1.12,0,0,1-.83.34Zm14.52,0h-5a1.12,1.12,0,0,1-.83-.34,1.18,1.18,0,0,1-.34-.88h0V10.68a1.18,1.18,0,0,1,.34-.87,1.12,1.12,0,0,1,.83-.34H122a1.45,1.45,0,0,1,1.07.34,2.58,2.58,0,0,1,.44.53h0l12.91,20.2V10.68a1.15,1.15,0,0,1,1.21-1.21h4.94a1.19,1.19,0,0,1,.89.34,1.21,1.21,0,0,1,.33.87h0V42.23a1.21,1.21,0,0,1-.33.85,1.14,1.14,0,0,1-.89.37H138.1a1.38,1.38,0,0,1-1.07-.37,4.82,4.82,0,0,1-.44-.51h0L123.73,23V42.23a1.16,1.16,0,0,1-1.21,1.22Zm43.82,0H161a1.15,1.15,0,0,1-.87-.34,1.18,1.18,0,0,1-.34-.88h0V31.56L148.43,11l-.1-.27a.71.71,0,0,1-.05-.26h0a1,1,0,0,1,.32-.71,1,1,0,0,1,.7-.31h5.2a1.44,1.44,0,0,1,1,.34,2.39,2.39,0,0,1,.54.63h0l7.62,13.35,7.62-13.35a2.52,2.52,0,0,1,.53-.63,1.56,1.56,0,0,1,1.07-.34H178a1,1,0,0,1,.73.31,1,1,0,0,1,.29.71h0a2,2,0,0,1,0,.26.74.74,0,0,1-.13.27h0L167.55,31.56V42.23a1.18,1.18,0,0,1-.34.88,1.15,1.15,0,0,1-.87.34Zm33.3,0h-14.9a1.12,1.12,0,0,1-.83-.34,1.22,1.22,0,0,1-.34-.88h0V10.68a1.22,1.22,0,0,1,.34-.87,1.12,1.12,0,0,1,.83-.34H199.2a16.39,16.39,0,0,1,6.63,1.16,8,8,0,0,1,3.81,3.31,9.91,9.91,0,0,1,1.21,5h0a7.17,7.17,0,0,1-.65,3.16,7.29,7.29,0,0,1-1.6,2.23,7.66,7.66,0,0,1-1.83,1.31h0a8.67,8.67,0,0,1,3.35,2.89,8,8,0,0,1,1.46,4.78h0a10.11,10.11,0,0,1-1.38,5.34,9.25,9.25,0,0,1-4.06,3.55,15.13,15.13,0,0,1-6.5,1.26Zm-8.35-14.66v8.93h7.43a4.62,4.62,0,0,0,3.59-1.34,4.49,4.49,0,0,0,1.21-3.13h0a4.43,4.43,0,0,0-1.23-3.18,4.77,4.77,0,0,0-3.57-1.28h-7.43Zm0-13.59v8h7a4.69,4.69,0,0,0,3.43-1.15,4,4,0,0,0,1.13-2.93h0a3.75,3.75,0,0,0-1.13-2.86,4.85,4.85,0,0,0-3.43-1.07h-7Zm48.88,28.25h-21.7a1.09,1.09,0,0,1-.82-.34,1.18,1.18,0,0,1-.34-.88h0V10.68a1.18,1.18,0,0,1,.34-.87,1.09,1.09,0,0,1,.82-.34H224a1.09,1.09,0,0,1,.82.34,1.18,1.18,0,0,1,.34.87h0V36.9h15a1.16,1.16,0,0,1,1.22,1.21h0v4.12a1.22,1.22,0,0,1-.34.88,1.18,1.18,0,0,1-.88.34Zm19.18.48h0a18.35,18.35,0,0,1-7.63-1.45,11.15,11.15,0,0,1-5-4.4,15,15,0,0,1-1.94-7.4h0c0-1.39-.05-2.77-.05-4.15s0-2.77.05-4.2h0a15,15,0,0,1,2-7.36,11.5,11.5,0,0,1,5-4.48A17.83,17.83,0,0,1,259.35,9h0a17.6,17.6,0,0,1,7.49,1.51A11.58,11.58,0,0,1,271.92,15a14.79,14.79,0,0,1,2,7.36h0c.06,1.43.1,2.82.1,4.2s0,2.76-.1,4.15h0a14.8,14.8,0,0,1-2,7.4,11.25,11.25,0,0,1-5,4.4A18.19,18.19,0,0,1,259.35,43.93Zm0-6.31h0a6.49,6.49,0,0,0,4.63-1.7q1.81-1.7,1.92-5.48h0c.06-1.42.1-2.76.1-4s0-2.56-.1-3.95h0a9,9,0,0,0-.92-4.13A5.52,5.52,0,0,0,262.67,16a7.31,7.31,0,0,0-3.32-.73h0A7.42,7.42,0,0,0,256,16a5.45,5.45,0,0,0-2.33,2.33,9.49,9.49,0,0,0-1,4.13h0c0,1.39,0,2.71,0,3.95s0,2.59,0,4h0q.15,3.78,1.95,5.48A6.46,6.46,0,0,0,259.35,37.62Zm34.26,6.31h0a18,18,0,0,1-7.79-1.52,11.29,11.29,0,0,1-5-4.48,14.52,14.52,0,0,1-1.92-7.1h0c0-1.39,0-2.88,0-4.47s0-3.09,0-4.51h0a14,14,0,0,1,1.92-6.94,11.45,11.45,0,0,1,5.05-4.4A18.12,18.12,0,0,1,293.61,9h0a19.54,19.54,0,0,1,6.31.93,15.29,15.29,0,0,1,4.59,2.39,10.68,10.68,0,0,1,2.81,3.24,7.52,7.52,0,0,1,1,3.39h0a1,1,0,0,1-.29.73,1,1,0,0,1-.77.29h-6a1.22,1.22,0,0,1-.75-.19,1.55,1.55,0,0,1-.47-.58h0a7.11,7.11,0,0,0-1.08-1.75,5.9,5.9,0,0,0-2-1.53,7.57,7.57,0,0,0-3.3-.61h0a6.92,6.92,0,0,0-4.83,1.61c-1.18,1.06-1.82,2.8-1.92,5.19h0q-.15,4.17,0,8.49h0c.1,2.5.76,4.29,2,5.39a7,7,0,0,0,4.85,1.65h0a8.57,8.57,0,0,0,3.58-.71,5.52,5.52,0,0,0,2.49-2.17,7.09,7.09,0,0,0,.92-3.82h0V29.71H295.4a1.05,1.05,0,0,1-.82-.37,1.17,1.17,0,0,1-.34-.84h0V25.39a1.15,1.15,0,0,1,.34-.87,1.09,1.09,0,0,1,.82-.34h11.94a1.16,1.16,0,0,1,1.22,1.21h0v5.29a13.24,13.24,0,0,1-1.85,7.14,12,12,0,0,1-5.21,4.53A18.34,18.34,0,0,1,293.61,43.93Zm45.14-.48H313.9a1.13,1.13,0,0,1-.88-.37,1.22,1.22,0,0,1-.34-.85h0V38.16A2,2,0,0,1,313,37c.2-.29.34-.5.44-.63h0L329.72,16H314.33a1.09,1.09,0,0,1-.82-.34,1.15,1.15,0,0,1-.34-.87h0V10.68a1.18,1.18,0,0,1,.34-.87,1.09,1.09,0,0,1,.82-.34h23.89a1.16,1.16,0,0,1,1.21,1.21h0v4a2.28,2.28,0,0,1-.19.94,3.19,3.19,0,0,1-.44.71h0L322.93,36.9h15.82A1.16,1.16,0,0,1,340,38.11h0v4.12a1.18,1.18,0,0,1-.34.88,1.15,1.15,0,0,1-.87.34Z" />
    </g>
  </g>
</svg>