<svg xmlns="http://www.w3.org/2000/svg" xmlns:xlink="http://www.w3.org/1999/xlink" xmlns:blush="http://design.blush" viewBox="-120 -80 3359.9999999999995 1999.9999999999995" overflow="visible" width="3359.9999999999995px" height="1999.9999999999995px">
  <defs>
    <polygon id="masterscenesonline-searching-path-5" points="0.885 0.4042 225.003 0.4042 225.003 229 0.885 229"/>
    <polygon id="masterscenesonline-searching-path-7" points="0.354636271 0.4782 167.3115 0.4782 167.3115 15 0.354636271 15"/>
    <path d="M363.685,181.685 C363.685,81.345 282.34,0 182,0 C81.66,0 0.315,81.345 0.315,181.685 C0.315,282.02 81.66,363.365 182,363.365 C282.34,363.365 363.685,282.02 363.685,181.685" id="masterscenesonline-searching-path-1"/>
    <path d="M363.685,181.685 C363.685,81.345 282.34,0 182,0 C81.66,0 0.315,81.345 0.315,181.685 C0.315,282.02 81.66,363.365 182,363.365 C282.34,363.365 363.685,282.02 363.685,181.685" id="masterscenesonline-searching-path-3"/>
  </defs>
  <g id="Master/Scenes/Online Searching" stroke="none" stroke-width="1" fill="none" fill-rule="evenodd" blush:viewBox="-32 136 3263.9999999999995 1743.9999999999998" blush:i="0">
    <g id="Background" transform="translate(-112.000000, -177.000000)" blush:i="0.0">
      <g id="Outdoor Plants" transform="translate(2557.000000, 1085.000000) scale(1 1)" blush:width="751" blush:height="965" blush:component="Outdoor Plants" blush:i="0.0.0" blush:value="Trees" blush:viewBox="49.712724935732695 24.125 680.5334190231363 945.6999999999998">
        <g id="Outdoor Plants/Trees" stroke="none" stroke-width="1" fill="none" fill-rule="evenodd" blush:viewBox="49.712724935732695 24.125 680.5334190231363 945.6999999999998" blush:i="0.0.0.0">
          <g id="Group" transform="translate(50.000000, 27.000000)" blush:i="0.0.0.0.0">
            <path d="M246.327941,707.554023 C202.725234,648.694159 266.995654,634.469818 237.177083,579.041474 C201.045875,511.877502 252.889207,525.364984 230.558991,457.77841 C212.889507,404.298257 182.034281,401.995081 179.286724,325.770544 C176.543382,249.546006 39.2582753,245.25238 68.925141,351.777408 C98.5962208,458.302435 22.2672523,432.071593 35.6974086,509.466735 C53.6492336,612.915227 -18.38566,571.479753 4.55980649,651.097777 C24.0792556,718.828035 -59.1552187,832.362634 138.705486,859 C314.797719,849.998599 289.934862,766.418112 246.327941,707.554023 Z" id="Fill-1" fill="#009BA0" blush:i="0.0.0.0.0.0"/>
            <path d="M95,585 C95,585 102.269883,617.395249 137,651" id="Stroke-5" stroke="#f3f4f6" stroke-width="9.107" stroke-linecap="round" stroke-linejoin="round" blush:i="0.0.0.0.0.1"/>
            <path d="M63,713 C63,713 75.8067111,744.89889 137,778" id="Stroke-7" stroke="#f3f4f6" stroke-width="9.107" stroke-linecap="round" stroke-linejoin="round" blush:i="0.0.0.0.0.2"/>
            <path d="M199,637 C199,637 190.990083,687.972701 137,725" id="Stroke-9" stroke="#f3f4f6" stroke-width="9.107" stroke-linecap="round" stroke-linejoin="round" blush:i="0.0.0.0.0.3"/>
            <path d="M608.603445,473.480495 C570.590587,379.998182 626.937388,314.013535 549.627883,136.939688 C472.318378,-40.1341592 367.026875,-40.7590157 351.056381,107.78507 C335.090104,256.329155 210.936686,350.641456 268.195115,484.721371 C324.468099,616.493705 207.88992,647.351714 245.711222,745.061987 C293.787219,869.262883 452.912681,874 452.912681,874 C626.199908,874 654.358401,816.786582 667.882995,767.076651 C703.354583,636.700085 625.009296,513.826235 608.603445,473.480495 Z" id="Fill-11" fill="#f9fafb" blush:i="0.0.0.0.0.4"/>
            <path d="M535,314 C535,314 520.978644,385.165722 454,459" id="Stroke-15" stroke="#f3f4f6" stroke-width="9.107" stroke-linecap="round" stroke-linejoin="round" blush:i="0.0.0.0.0.5"/>
            <path d="M560,611 C560,611 541.481013,682.167801 453,756" id="Stroke-17" stroke="#f3f4f6" stroke-width="9.107" stroke-linecap="round" stroke-linejoin="round" blush:i="0.0.0.0.0.6"/>
            <path d="M365,465 C365,465 376.498556,549.574282 454,611" id="Stroke-19" stroke="#f3f4f6" stroke-width="9.107" stroke-linecap="round" stroke-linejoin="round" blush:i="0.0.0.0.0.7"/>
            <line x1="136" y1="938" x2="136" y2="511" id="Stroke-3" stroke="#f3f4f6" stroke-width="9.107" stroke-linecap="round" stroke-linejoin="round" blush:i="0.0.0.0.0.8"/>
            <line x1="453" y1="932" x2="453" y2="226" id="Stroke-13" stroke="#f3f4f6" stroke-width="9.107" stroke-linecap="round" stroke-linejoin="round" blush:i="0.0.0.0.0.9"/>
          </g>
        </g>
      </g>
      <g id="Screen" transform="translate(591.000000, 705.000000) scale(1 1)" blush:width="2178" blush:height="1348" blush:component="Screen" blush:i="0.0.1" blush:value="Laptop 3" blush:viewBox="0 -7.634304207119726 2177.9999999999995 1363.2686084142395">
        <g id="Screen/Laptop 3" stroke="none" stroke-width="1" fill="none" fill-rule="evenodd" blush:viewBox="0 -7.634304207119726 2177.9999999999995 1363.2686084142395" blush:i="0.0.1.0">
          <g id="Group" blush:i="0.0.1.0.0">
            <path d="M2021.3995,1329.31 L156.8995,1329.31 C116.6695,1329.31 84.0595,1296.705 84.0595,1256.475 L84.0595,72.835 C84.0595,32.61 116.6695,-2.27373675e-13 156.8995,-2.27373675e-13 L2021.3995,-2.27373675e-13 C2061.6295,-2.27373675e-13 2094.2345,32.61 2094.2345,72.835 L2094.2345,1256.475 C2094.2345,1296.705 2061.6295,1329.31 2021.3995,1329.31" id="Fill-1" fill="#1a2846" blush:i="0.0.1.0.0.0"/>
            <path d="M2088.885,1347.308 L88.985,1347.308 C39.84,1347.308 0,1307.463 0,1258.318 L0,1230.993 L2177.875,1230.993 L2177.875,1258.318 C2177.875,1307.463 2138.03,1347.308 2088.885,1347.308" id="Fill-4" fill="#061430" blush:i="0.0.1.0.0.1"/>
            <polygon id="Fill-7" fill="#FFF" points="138.0175 1175.397 2034.6575 1175.397 2034.6575 52.812 138.0175 52.812" blush:i="0.0.1.0.0.2"/>
            <polygon id="Fill-9" fill="#f3f4f6" points="890.987 1230.9945 918.012 1273.9845 1298.292 1273.9845 1323.392 1230.9945" blush:i="0.0.1.0.0.3"/>
          </g>
          <rect id="Rectangle" fill="#f9fafb" x="448" y="152" width="1323" height="431" rx="215.5" blush:i="0.0.1.0.1"/>
          <path d="M1490.0648,775 L1399.9352,775 C1378.4312,775 1361,757.5664 1361,736.0648 L1361,645.9352 C1361,624.4312 1378.4312,607 1399.9352,607 L1490.0648,607 C1511.5688,607 1529,624.4312 1529,645.9352 L1529,736.0648 C1529,757.5664 1511.5688,775 1490.0648,775 Z" id="Stroke-7" fill="#FF0057" blush:i="0.0.1.0.2"/>
          <path d="M1661.0648,963 L1570.9352,963 C1549.4312,963 1532,945.5688 1532,924.0648 L1532,833.9352 C1532,812.4312 1549.4312,795 1570.9352,795 L1661.0648,795 C1682.5688,795 1700,812.4312 1700,833.9352 L1700,924.0648 C1700,945.5688 1682.5688,963 1661.0648,963 Z" id="Stroke-13-Copy" fill="#A191FF" blush:i="0.0.1.0.3"/>
          <g id="UI Elements" transform="translate(285.000000, 269.000000) scale(1 1)" blush:width="1101" blush:height="811" blush:component="UI Elements" blush:i="0.0.1.0.4" blush:value="UI Card 1" blush:viewBox="0 14.324728260869506 1100.9999999999998 798.8790760869566">
            <g id="UI Elements/UI Card 1" stroke="none" stroke-width="1" fill="none" fill-rule="evenodd" blush:viewBox="0 14.324728260869506 1100.9999999999998 798.8790760869566" blush:i="0.0.1.0.4.0">
              <g id="userinterface" transform="translate(1.000000, 17.000000)" blush:i="0.0.1.0.4.0.0">
                <path d="M1072.3832,793.4326 L68.6102,793.4326 C55.8452,793.4326 45.4982,783.0856 45.4982,770.3206 L45.4982,61.6156 C45.4982,48.8506 55.8452,38.5006 68.6102,38.5006 L1072.3832,38.5006 C1085.1482,38.5006 1095.4952,48.8506 1095.4952,61.6156 L1095.4952,770.3206 C1095.4952,783.0856 1085.1482,793.4326 1072.3832,793.4326 Z" id="Stroke-1-Copy" fill="#f3f4f6" blush:i="0.0.1.0.4.0.0.0"/>
                <path d="M1029.885,757.932 L26.112,757.932 C13.347,757.932 3,747.585 3,734.82 L3,26.115 C3,13.35 13.347,3 26.112,3 L1029.885,3 C1042.65,3 1052.997,13.35 1052.997,26.115 L1052.997,734.82 C1052.997,747.585 1042.65,757.932 1029.885,757.932 Z" id="Stroke-1" fill="#FFF" blush:i="0.0.1.0.4.0.0.1"/>
                <path d="M1029.885,4.54747351e-13 L26.112,4.54747351e-13 C11.6905975,4.54747351e-13 0,11.6926939 0,26.115 L0,734.82 C0,749.241854 11.6901458,760.932 26.112,760.932 L1029.885,760.932 C1044.30685,760.932 1055.997,749.241854 1055.997,734.82 L1055.997,26.115 C1055.997,11.6926939 1044.3064,4.54747351e-13 1029.885,4.54747351e-13 Z M26.112,6 L1029.885,6 C1040.99245,6 1049.997,15.0061616 1049.997,26.115 L1049.997,734.82 C1049.997,745.928146 1040.99315,754.932 1029.885,754.932 L26.112,754.932 C15.0038542,754.932 6,745.928146 6,734.82 L6,26.115 C6,15.0061616 15.0045468,6 26.112,6 Z" id="Stroke-1-Copy-2" fill="#f3f4f6" fill-rule="nonzero" blush:i="0.0.1.0.4.0.0.2"/>
                <path d="M617.1762,372.0626 L197.7822,372.0626 C160.6212,372.0626 130.4982,341.9396 130.4982,304.7786 C130.4982,267.6236 160.6212,237.5006 197.7822,237.5006 L617.1762,237.5006 C654.3342,237.5006 684.4572,267.6236 684.4572,304.7786 C684.4572,341.9396 654.3342,372.0626 617.1762,372.0626 Z" id="Stroke-5" fill="#1d64f2" blush:i="0.0.1.0.4.0.0.3"/>
                <path d="M854.382,370.2114 L854.382,370.2114 C817.224,370.2114 787.098,340.0884 787.098,302.9274 C787.098,265.7724 817.224,235.6494 854.382,235.6494 C891.54,235.6494 921.663,265.7724 921.663,302.9274 C921.663,340.0884 891.54,370.2114 854.382,370.2114 Z" id="Stroke-7" fill="#C7D2F2" blush:i="0.0.1.0.4.0.0.4"/>
                <g id="cross" transform="translate(945.572500, 53.129500)" fill="#000" fill-rule="nonzero" blush:i="0.0.1.0.4.0.0.5">
                  <path d="M43.8180195,1.81801948 C45.5753788,0.0606601718 48.4246212,0.0606601718 50.1819805,1.81801948 C51.8844223,3.52046132 51.9376237,6.24760984 50.3415844,8.01409585 L50.1819805,8.18198052 L8.18198052,50.1819805 C6.4246212,51.9393398 3.5753788,51.9393398 1.81801948,50.1819805 C0.11557765,48.4795387 0.062376343,45.7523902 1.65841556,43.9859042 L1.81801948,43.8180195 L43.8180195,1.81801948 Z" id="Stroke-9" blush:i="0.0.1.0.4.0.0.5.0"/>
                  <path d="M1.81801948,1.81801948 C3.52046132,0.11557765 6.24760984,0.062376343 8.01409585,1.65841556 L8.18198052,1.81801948 L50.1819805,43.8180195 C51.9393398,45.5753788 51.9393398,48.4246212 50.1819805,50.1819805 C48.4795387,51.8844223 45.7523902,51.9376237 43.9859042,50.3415844 L43.8180195,50.1819805 L1.81801948,8.18198052 C0.0606601718,6.4246212 0.0606601718,3.5753788 1.81801948,1.81801948 Z" id="Stroke-11" blush:i="0.0.1.0.4.0.0.5.1"/>
                </g>
                <path d="M727.2462,457.5006 C737.187325,457.5006 745.2462,465.559475 745.2462,475.5006 C745.2462,485.331269 737.365417,493.321282 727.576865,493.497624 L727.2462,493.5006 L148.4982,493.5006 C138.557075,493.5006 130.4982,485.441725 130.4982,475.5006 C130.4982,465.669931 138.378983,457.679918 148.167535,457.503576 L148.4982,457.5006 L727.2462,457.5006 Z" id="Stroke-13" fill="#C7D2F2" fill-rule="nonzero" blush:i="0.0.1.0.4.0.0.6"/>
                <path d="M479.0502,564.5006 C488.991325,564.5006 497.0502,572.559475 497.0502,582.5006 C497.0502,592.331269 489.169417,600.321282 479.380865,600.497624 L479.0502,600.5006 L148.4982,600.5006 C138.557075,600.5006 130.4982,592.441725 130.4982,582.5006 C130.4982,572.669931 138.378983,564.679918 148.167535,564.503576 L148.4982,564.5006 L479.0502,564.5006 Z" id="Stroke-15" fill="#C7D2F2" fill-rule="nonzero" blush:i="0.0.1.0.4.0.0.7"/>
              </g>
            </g>
          </g>
        </g>
      </g>
      <g id="Medium Plants" transform="translate(0.000000, 1250.000000) scale(1 1)" blush:width="845" blush:height="800" blush:component="Medium Plants" blush:i="0.0.2" blush:value="Plant 5" blush:viewBox="0 38.47780126849898 844.9999999999998 761.0993657505287">
        <g id="Medium Plants/Plant 5" stroke="none" stroke-width="1" fill="none" fill-rule="evenodd" blush:viewBox="0 38.47780126849898 844.9999999999998 761.0993657505287" blush:i="0.0.2.0">
          <g id="Group" transform="translate(0.000000, 41.000000)" blush:i="0.0.2.0.0">
            <path d="M416.63677,583.047934 L426.647451,583.047934 C426.647451,583.047934 424.80074,524.172037 465.321274,464.212062 C505.841808,404.252087 536.97489,403.156308 536.97489,403.156308 C514.014969,403.951964 487.155191,424.303882 456.395555,464.212062 C426.914076,502.461934 417.413288,568.272504 416.63677,583.047934 Z" id="Fill-5" fill="#f3f4f6" blush:i="0.0.2.0.0.0"/>
            <path d="M354.59194,558.411454 L345.24874,555.901054 C345.24874,555.901054 364.622625,446.510254 319.265944,368.07845 C273.909262,289.646645 77.6575283,202.398924 77.6575283,202.398924 C85.1493374,199.983041 270.872507,275.192963 328.380488,368.07845 C361.085413,420.902646 364.025485,527.827047 354.59194,558.411454 Z" id="Fill-12" fill="#f3f4f6" blush:i="0.0.2.0.0.1"/>
            <path d="M493.43234,427.820814 C493.43234,427.820814 440.55314,366.128814 490.17314,326.944014 C490.17314,326.944014 526.41314,305.000814 555.96914,306.781614 C555.96914,306.781614 514.09154,377.003214 527.63954,383.987214 C541.18514,390.971214 568.66034,302.377614 568.66034,302.377614 C568.66034,302.377614 651.13874,294.378414 677.67074,307.136814 C677.67074,307.136814 607.16354,364.835214 622.00994,368.272014 C636.86114,371.706414 713.01794,315.071214 713.01794,315.071214 C713.01794,315.071214 789.78194,328.136814 785.68994,374.965614 C781.59554,421.792014 755.14754,436.254414 743.52194,435.006414 C731.89394,433.763214 663.88994,407.802414 662.40914,417.328014 C660.92834,426.853614 701.86514,457.981614 730.52834,459.440814 C730.52834,459.440814 676.40834,519.124014 640.44194,501.899214 C604.47314,484.674414 601.40114,457.369614 578.98034,447.128814 C556.55954,436.885614 537.41954,436.912014 546.67874,447.359214 C555.93314,457.801614 596.50994,467.953614 609.33314,490.633614 C622.15634,513.313614 633.66194,528.611214 596.44754,523.012014 C559.23314,517.412814 498.74354,490.182414 496.08674,459.001614 L493.43234,427.820814 Z" id="Fill-1" fill="#017C7F" blush:i="0.0.2.0.0.2"/>
            <path d="M398.993366,567.130775 L407.998591,567.130775 C407.998591,567.130775 391.10022,460.315392 416.63677,368.449195 C442.173321,276.582997 480.856349,244.544738 480.856349,244.544738 C451.313712,258.975075 425.884615,305.602619 404.569057,384.427369 C393.611982,424.94654 391.021056,541.282798 398.993366,567.130775 Z" id="Fill-19" fill="#f3f4f6" blush:i="0.0.2.0.0.3"/>
            <path d="M308.54546,350.237934 C308.54546,350.237934 392.66546,303.130734 353.40866,239.199534 C353.40866,239.199534 322.00466,199.947534 288.35906,189.853134 C288.35906,189.853134 306.30146,285.185934 288.35906,287.429934 C270.41186,289.673934 276.02066,179.758734 276.02066,179.758734 C276.02066,179.758734 187.41746,137.139534 152.64866,140.501934 C152.64866,140.501934 207.60386,233.593134 189.66146,231.351534 C171.71426,229.107534 110.02706,134.893134 110.02706,134.893134 C110.02706,134.893134 19.1822601,118.071534 4.59986012,171.905934 C-9.98013988,225.742734 13.5734601,252.661134 27.0302601,256.023534 C40.4918601,259.388334 126.85106,258.269934 124.60706,269.485134 C122.36546,280.697934 64.0430601,298.645134 31.5182601,288.550734 C31.5182601,288.550734 67.4078601,377.153934 114.51506,372.668334 C161.61986,368.182734 176.19986,339.020334 205.36226,336.778734 C234.52226,334.534734 255.83186,342.387534 241.25186,350.237934 C226.67186,358.088334 177.32306,352.808334 153.76946,372.833934 C130.21586,392.857134 111.15026,405.193134 154.89266,414.166734 C198.63266,423.137934 277.14146,417.531534 292.84466,383.885934 L308.54546,350.237934 Z" id="Fill-7" fill="#009BA0" blush:i="0.0.2.0.0.4"/>
            <path d="M442.37138,285.271614 C442.37138,285.271614 331.48898,223.176414 383.23298,138.907614 C383.23298,138.907614 424.62818,87.1612142 468.98258,73.8532142 C468.98258,73.8532142 445.32818,199.522014 468.98258,202.478814 C492.63698,205.435614 485.24498,60.5476142 485.24498,60.5476142 C485.24498,60.5476142 578.38898,16.0270752 651.732872,7.30837358 C651.732872,7.30837358 572.955192,127.096243 614.256682,127.096243 C655.558172,127.096243 704.05538,1.41161425 704.05538,1.41161425 C704.05538,1.41161425 837.352848,-12.9891263 843.02738,50.2012142 C848.701912,113.391555 831.20258,156.646014 813.45938,161.083614 C795.72098,165.518814 681.87938,164.038014 684.83618,178.822014 C687.79298,193.608414 764.67218,217.262814 807.54578,203.957214 C807.54578,203.957214 760.23458,320.753214 698.13938,314.839614 C636.04658,308.926014 616.82498,270.487614 578.38898,267.528414 C539.94818,264.574014 511.85858,274.922814 531.07778,285.271614 C550.29698,295.620414 615.34898,288.662814 646.39538,315.058014 C677.44418,341.450814 702.57698,357.715614 644.91938,369.542814 C587.25938,381.370014 483.76658,373.978014 463.06898,329.623614 L442.37138,285.271614 Z" id="Fill-14" fill="#009BA0" blush:i="0.0.2.0.0.5"/>
            <path d="M256.80074,554.130334 L587.20074,554.130334 L571.512822,687.477634 C566.772936,727.766667 532.627666,758.130334 492.060774,758.130334 L346.771912,758.130334 C305.015121,758.130334 270.281858,726.014581 267.016842,684.385634 L256.80074,554.130334 L256.80074,554.130334 Z" id="Rectangle" fill="#1d64f2" blush:i="0.0.2.0.0.6"/>
          </g>
        </g>
      </g>
      
      <g id="Outdoor Plants" transform="translate(2517.000000, 1088.000000) scale(1 1)" blush:width="751" blush:height="965" blush:component="Outdoor Plants" blush:i="0.0.4" blush:value="Bush" blush:viewBox="97.9775064267352 685.1499999999999 559.87146529563 279.84999999999997">
        <g id="Outdoor Plants/Bush" stroke="none" stroke-width="1" fill="none" fill-rule="evenodd" blush:viewBox="97.9775064267352 685.1499999999999 559.87146529563 279.84999999999997" blush:i="0.0.4.0">
          <g id="Group-16-Copy" transform="translate(98.000000, 689.000000)" blush:i="0.0.4.0.0">
            <path d="M2.39500229,275.969448 C4.95578,275.610539 7.81571397,276.244612 10.3764917,275.885703 L558,275.885703 C557.748709,255.057012 545.866222,224.872758 527.67752,214.67974 C509.500785,204.498686 485.903338,204.821704 468.013793,215.46934 C476.079046,172.735231 481.918576,128.086941 470.155752,86.2022508 C458.41686,44.3175605 424.971188,5.75876099 381.773022,0.590470148 C341.267263,-4.24283888 301.934196,21.2038153 278.611973,54.6661058 C255.28975,88.1283962 244.831246,128.637268 234.815494,168.165122 C235.952288,149.465959 226.678444,130.479668 211.253946,119.855959 C195.817483,109.23225 174.768847,107.365923 157.704973,115.094432 C138.654702,123.720214 125.982442,142.814177 120.107013,162.889159 C114.24355,182.976104 114.255516,204.223522 114.315347,225.135958 C102.109771,197.476031 66.8212974,182.581304 38.4971814,193.133231 C10.1610992,203.697122 -6.48395591,247.077267 2.39500229,275.969448" id="Fill-1" fill="#eceded" blush:i="0.0.4.0.0.0"/>
            <path d="M118.397008,275.974803 C119.891241,275.760692 121.552828,276.153228 123.047061,275.927223 L442,275.927223 C441.856554,263.85377 434.923314,246.356186 424.344146,240.456253 C413.753025,234.556319 400.018038,234.734745 389.59427,240.920159 C394.292138,216.142818 397.687034,190.247344 390.849426,165.969594 C383.999863,141.691845 364.515068,119.341089 339.352189,116.343542 C315.76722,113.536316 292.863621,128.286149 279.27208,147.686938 C265.692493,167.087727 259.607977,190.556615 253.762539,213.478332 C254.420001,202.641962 249.02881,191.639062 240.039506,185.489334 C231.050202,179.32771 218.785539,178.233367 208.85188,182.717792 C197.758697,187.725599 190.37121,198.787974 186.952406,210.42131 C183.545555,222.066541 183.545555,234.389789 183.581417,246.498926 C176.480823,230.476325 155.92018,221.840536 139.423851,227.966474 C122.915568,234.080518 113.220986,259.226605 118.397008,275.974803" id="Fill-4" fill="#1d64f2" blush:i="0.0.4.0.0.1"/>
          </g>
        </g>
      </g>
      
      <g id="Floor" transform="translate(112.000000, 2049.500000)" fill="#f3f4f6" fill-rule="nonzero" blush:i="0.0.6">
        <path d="M3214.29077,-2.5 C3216.22377,-2.5 3217.79077,-0.932996624 3217.79077,1 C3217.79077,2.8685634 3216.32649,4.39512645 3214.48281,4.49482114 L3214.29077,4.5 L0.290769851,4.5 C-1.64222677,4.5 -3.20923015,2.93299662 -3.20923015,1 C-3.20923015,-0.868563404 -1.74495255,-2.39512645 0.098734648,-2.49482114 L0.290769851,-2.5 L3214.29077,-2.5 Z" id="Path-4-Copy" blush:i="0.0.6.0"/>
      </g>
    </g>
    <g transform="translate(2260.000000, 1123.000000) scale(-1, 1) translate(-2260.000000, -1123.000000) translate(1705.000000, 373.000000) scale(1 1)" blush:has-customizable-colors="true" blush:width="1110" blush:height="1500" id="Master/Character/Standing" blush:component="Master/Character/Standing" blush:i="0.1" blush:value="Standing" blush:viewBox="322.5 75 607.5 1424.9999999999995">
      <g id="Master/Character/Standing" stroke="none" stroke-width="1" fill="none" fill-rule="evenodd" blush:has-customizable-colors="true" blush:viewBox="322.5 75 607.5 1424.9999999999995" blush:i="0.1.0">
        <g id="Lower Body/Standing" transform="translate(-64.000000, 629.000000) scale(1 1)" blush:width="1110" blush:height="871" blush:component="Lower Body/Standing" blush:i="0.1.0.0" blush:value="Jump 4" blush:viewBox="338.54999999999995 -3.3329081632653015 482.8499999999998 894.3303571428569">
          <g id="Lower Body/Standing/Jump 4" stroke="none" stroke-width="1" fill="none" fill-rule="evenodd" blush:viewBox="338.54999999999995 -3.3329081632653015 482.8499999999998 894.3303571428569" blush:i="0.1.0.0.0">
            <g id="leg-2" transform="translate(435.000000, 640.000000)" blush:i="0.1.0.0.0.0">
              <path d="M69.7065805,2.62900812e-13 C69.7065805,2.62900812e-13 59.8429805,49.9337 56.8989805,63.4707 C50.7537005,82.0674541 53.4873294,106.935257 64.0823294,109.877257 C74.6763294,112.821257 92.0109805,104.9717 92.0109805,104.9717 L127.295581,18.458 L69.7065805,2.62900812e-13 Z" id="Fill-1" fill="#efbb96" blush:color="Skin-500" blush:i="0.1.0.0.0.0.0"/>
              <g id="Shoe-2" transform="translate(0.000000, 63.030484)" blush:i="0.1.0.0.0.0.1">
                <path d="M56.8989805,0.440216332 C56.8989805,0.440216332 27.6399805,-3.14978367 15.3919805,10.1742163 C6.73498053,19.5922163 8.65798053,44.6782163 11.9969805,51.9122163 C15.3349805,59.1442163 18.0229805,65.6842163 14.6849805,76.8122163 C11.3459805,87.9402163 -2.06601947,108.405216 2.94198053,135.669216 C7.94898053,162.932216 21.9799805,181.783216 30.8819805,184.008216 C43.1239805,178.444216 92.0109805,41.9412163 92.0109805,41.9412163 C92.0109805,41.9412163 65.8369805,42.8102163 58.8149805,24.2092163 C53.9419805,11.2952163 56.8989805,0.440216332 56.8989805,0.440216332" id="Fill-3" fill="#f3f4f6" blush:i="0.1.0.0.0.0.1.0"/>
                <path d="M73.7876805,83.9235163 C68.2826805,84.2755163 60.9096805,77.8875163 58.4436805,74.0365163 C57.0876805,71.9175163 56.9446805,69.8545163 59.2776805,71.5825163 C59.4036805,71.6765163 69.3396805,84.0265163 77.5346805,79.5175163 C78.1916805,79.1565163 79.0166805,79.3955163 79.3786805,80.0525163 C80.2066805,82.7955163 75.4136805,83.7955163 73.7876805,83.9235163" id="Fill-13" fill="#1d64f2" blush:i="0.1.0.0.0.0.1.1"/>
                <path d="M67.0561805,98.4089163 C61.6181805,98.0449163 55.2521805,93.7849163 51.9871805,90.2579163 C50.0271805,88.1409163 50.4751805,85.0329163 52.8191805,87.2969163 C52.9211805,87.3959163 62.5981805,97.4629163 70.4891805,95.8379163 C71.2261805,95.6849163 71.9421805,96.1579163 72.0931805,96.8909163 C72.3801805,98.7699163 68.7541805,98.5229163 67.0561805,98.4089163" id="Fill-15" fill="#1d64f2" blush:i="0.1.0.0.0.0.1.2"/>
                <path d="M18.1880805,167.131616 C13.6080805,160.187616 8.55308053,145.445616 7.46908053,128.735616 C6.57708053,114.981616 19.7640805,82.3026163 21.5840805,67.7816163 C22.7650805,58.3596163 21.1930805,50.9576163 20.8010805,36.8716163 C20.4890805,25.6316163 21.6710805,10.6636163 22.1620805,5.07061633 C18.4590805,6.63761633 12.5900805,8.11761633 10.2480805,10.9706163 C4.09208053,18.4626163 7.54408053,44.8136163 9.29508053,52.5846163 C11.6130805,62.8676163 11.8600805,70.3616163 11.2320805,77.2026163 C10.1700805,88.7726163 -3.42991947,112.521616 0.820080531,139.912616 C5.45208053,169.769616 21.9800805,181.782616 30.8820805,184.008616 C32.1890805,184.113616 34.2180805,182.861616 34.2460805,180.621616 C28.8050805,177.793616 22.1820805,173.186616 18.1880805,167.131616" id="Fill-39" fill="#1d64f2" blush:i="0.1.0.0.0.0.1.3"/>
              </g>
            </g>
            <g id="leg-1" transform="translate(342.000000, 275.000000)" blush:i="0.1.0.0.0.1">
              <path d="M172.272894,0.64634203 C160.189894,-5.70565797 80.3318936,36.853342 80.3318936,36.853342 C80.3318936,36.853342 72.5438936,46.534342 76.3778936,58.676342 C80.2118936,70.819342 95.0828936,78.535342 95.0828936,78.535342 L181.000894,58.343342 C181.000894,58.343342 184.355894,6.99834203 172.272894,0.64634203" id="Leg-1" fill="#efbb96" blush:color="Skin-500" blush:i="0.1.0.0.0.1.0"/>
              <g id="Shoe-1" transform="translate(0.000000, 24.507092)" blush:i="0.1.0.0.0.1.1">
                <path d="M57.8607936,0.462549602 C53.5027936,0.867549602 51.1607936,-1.4094504 45.9557936,10.8925496 C40.7507936,23.1945496 35.0807936,45.8735496 33.4537936,49.5745496 C26.6837936,64.9745496 11.0717936,82.6075496 7.75279358,97.7475496 C-5.53720642,158.36255 21.1297936,167.73455 24.5607936,165.72155 C35.3137936,159.40855 43.3687936,139.72855 52.0477936,130.41855 C68.7767936,112.47255 110.795794,56.4065496 111.741794,50.2555496 C97.3777936,46.1285496 90.4647936,35.9525496 90.4647936,26.4895496 C90.4647936,17.0255496 91.8867936,5.4485496 91.8867936,5.4485496 C91.8867936,5.4485496 70.2267936,-0.686450398 57.8607936,0.462549602" id="Fill-7" fill="#f3f4f6" blush:i="0.1.0.0.0.1.1.0"/>
                <path d="M81.6302936,94.8199763 C80.8342936,94.8249496 80.1972936,94.1269496 80.2762936,93.3349496 C80.7042936,81.7999496 64.0422936,81.7889496 64.5952936,78.4769496 C65.1982936,75.3559496 84.3132936,79.1949496 83.1562936,92.9559496 C83.0982936,93.6599496 82.3212936,94.8199763 81.6302936,94.8199763" id="Fill-9" fill="#1d64f2" blush:i="0.1.0.0.0.1.1.1"/>
                <path d="M92.7328936,79.7340432 C92.1018936,79.7340432 91.5378936,79.2929496 91.4048936,78.6519496 C89.0558936,68.6639496 75.1488936,67.3439496 75.7438936,64.0829496 C76.6348936,61.1759496 93.5638936,67.2259496 94.0628936,78.0999496 C94.1018936,78.9509496 93.5808936,79.7439496 92.7328936,79.7340432" id="Fill-11" fill="#1d64f2" blush:i="0.1.0.0.0.1.1.2"/>
                <path d="M47.9749936,37.1256496 C50.3439936,24.7476496 56.3699936,3.5156496 57.8609936,0.462649602 C53.5019936,0.867649602 47.3599936,-3.5853504 42.1549936,8.7176496 C36.9509936,21.0196496 35.0799936,45.8736496 33.4539936,49.5746496 C26.6839936,64.9746496 8.30899358,85.1176496 4.03799358,100.01765 C0.0159935799,114.05065 -3.06100642,140.92265 5.29399358,157.55765 C10.9049936,168.72865 21.1299936,167.73465 24.5609936,165.72165 C25.8979936,164.93665 27.7429936,163.55965 29.0029936,162.40565 C27.9009936,162.93765 27.0129936,163.32765 25.5809936,163.73665 C17.7889936,165.96365 10.0789936,155.31865 7.85199358,136.02465 C5.62599358,116.73165 9.13999358,97.5286496 20.4579936,81.0826496 C26.9539936,71.6426496 45.6469936,49.2886496 47.9749936,37.1256496" id="Fill-36" fill="#1d64f2" blush:i="0.1.0.0.0.1.1.3"/>
              </g>
            </g>
            <g id="pant" transform="translate(463.000000, -1.000000)" blush:i="0.1.0.0.0.2">
              <path d="M49.9597,-5.68434189e-14 L125.5647,226.873 C125.5647,226.873 91.4667,447.709 91.4667,467.432 C84.8927,483.868 41.7407,591.756 36.8107,642.708 C63.1077,657.5 95.9807,673.937 95.9807,673.937 C95.9807,673.937 153.5077,568.745 196.2407,453.691 C238.9757,338.639 243.8197,330.28 249.1347,283.398 C268.8037,109.898 246.8947,98.213 221.5377,-5.68434189e-14 L49.9597,-5.68434189e-14 Z" id="pang-2" fill="#1a2846" blush:i="0.1.0.0.0.2.0"/>
              <path d="M211.016811,29.4397032 C211.429324,29.4079849 211.794127,29.711998 211.831621,30.1245111 C219.478458,114.255877 202.534259,186.513315 148.752398,297.323586 C142.611823,312.570537 137.052735,329.774862 132.033924,348.619037 C125.112142,374.608311 119.556702,402.288541 115.014442,430.980071 L114.769972,432.537513 L114.391722,434.993387 L113.871202,438.447953 L113.339679,442.047692 L112.233769,449.717181 L110.313941,463.452804 L109.07746,472.516631 C107.87474,478.201746 106.266575,483.965096 104.225707,490.011243 L103.828156,491.177513 L103.215387,492.932294 L102.794911,494.108459 L102.364063,495.291857 L101.922154,496.484361 L101.23705,498.294282 L100.523195,500.135217 L100.030173,501.382857 L99.2632459,503.28952 L98.4613824,505.244043 L97.9062524,506.576766 L97.0410078,508.625092 L96.1346418,510.738123 L94.8581784,513.667067 L93.8468425,515.955641 L92.4220004,519.141571 L90.8433277,522.627127 L84.1838416,537.188945 L81.8957328,542.232473 L80.491969,545.358831 L78.8405171,549.079365 L77.5786657,551.96 L76.9609405,553.383655 L76.3488304,554.803605 C63.0597033,585.732824 54.1164916,613.917064 48.1874835,647.813624 C48.116115,648.221643 47.7274947,648.494552 47.3194759,648.423184 C46.911457,648.351815 46.6385479,647.963195 46.7099165,647.555176 C52.561555,614.100943 61.34004,586.185618 74.3076705,555.760689 L75.2768076,553.500093 L76.2194162,551.324338 L76.8798863,549.812362 L78.2387003,546.731498 L79.3019366,544.345514 L81.1859474,540.16052 L82.3988698,537.48884 L90.3086679,520.178056 L91.7741441,516.921087 L92.814206,514.584147 L93.8062259,512.330898 L94.4420238,510.872121 L95.3591097,508.744385 L95.9470917,507.363464 L96.5171457,506.010425 L97.3401101,504.029072 L97.8683405,502.737591 L98.3810399,501.467473 L99.1224664,499.598279 L99.5993343,498.373421 L100.063068,497.163407 L100.514353,495.966375 L101.169435,494.191093 L101.592592,493.018367 L102.005697,491.852103 L102.409435,490.690439 L102.804489,489.531513 C104.682881,483.966709 106.190208,478.648097 107.348757,473.412914 L107.612452,472.187554 L109.288942,459.909437 L110.749983,449.494624 L111.667935,443.113493 L112.216902,439.374319 L112.75741,435.763642 L113.151901,433.183125 L113.532894,430.745522 C118.082615,402.006861 123.647781,374.27817 130.584451,348.232995 C135.618075,329.3332 141.195613,312.071778 147.381968,296.71593 C201.074445,186.085745 217.95722,114.090244 210.337779,30.2602889 C210.300285,29.8477757 210.604298,29.4829729 211.016811,29.4397032 Z" id="Stroke-19" fill="#fff" fill-rule="nonzero" blush:i="0.1.0.0.0.2.1"/>
              <path d="M50.283,5.68434189e-13 C50.283,5.68434189e-13 8.52651283e-14,49.862 8.52651283e-14,118.173 C8.52651283e-14,184.304 44.138,224.539 106.653,239.005 C72.064,255.882 53.535,266.376 32.631,276.441 C36.502,286.507 44.511,340.79 50.231,343.824 C55.952,346.857 187.088,331.624 232.591,317.254 C296.756,296.991 355.72,265.649 355.666037,201.151 C355.605,129.469 214.998,92.343 178.618,84.064 C165.178,75.104 155.228,5.68434189e-13 155.228,5.68434189e-13 L50.283,5.68434189e-13 Z" id="pant-1" fill="#1a2846" blush:i="0.1.0.0.0.2.2"/>
              <path d="M154.9509,80.5361 C179.2369,83.5761 203.3279,88.6351 226.5629,96.3911 C233.0299,98.9091 243.8689,100.7881 249.8109,104.5831 C250.7579,105.1861 252.0579,106.4111 249.6979,105.5891 C229.4249,98.5191 205.5889,92.5851 184.6009,88.0071 C174.7349,85.8441 164.6389,83.8981 154.7319,81.9461 C153.8639,81.8021 154.0499,80.4061 154.9509,80.5361" id="Fill-24" fill="#000" blush:i="0.1.0.0.0.2.3"/>
              <path d="M107.0974,238.3438 C136.4004,217.1588 180.6114,186.8568 217.1724,185.2278 C217.8354,185.2658 217.8174,186.3288 217.1144,186.2868 C197.3774,187.3458 176.7014,197.2948 159.6704,206.9458 C150.7974,212.1858 142.1054,217.7558 133.3494,223.2228 C124.6234,228.7398 115.8444,233.9908 106.7994,239.0388 C106.4794,239.2348 106.7614,238.5838 107.0974,238.3438" id="Fill-26" fill="#f3f4f6" blush:i="0.1.0.0.0.2.4"/>
              <path d="M108.8689,339.1992 C146.7369,332.4082 189.5779,325.6052 227.1199,317.4832 C232.5399,316.3272 239.1659,314.8452 244.3659,312.9912 C244.6549,312.8612 245.1769,313.3162 243.8129,314.0092 C243.0179,314.4122 239.5329,315.6862 238.8119,315.9742 C218.8469,322.1942 198.1049,325.7712 177.5619,329.4462 C161.4129,332.2732 143.4889,334.8752 127.1619,337.1022 C121.5409,337.8052 114.9289,338.9572 109.2949,339.5712 C108.8679,339.6302 108.3929,339.2692 108.8689,339.1992" id="Fill-28" fill="#f3f4f6" blush:i="0.1.0.0.0.2.5"/>
              <path d="M193.156,33.7119 C193.802,47.1629 193.246,62.1809 200.4,74.0399 C203.172,77.5789 207.927,78.8559 212.067,80.0239 C212.554,80.0659 212.509,80.8479 212.011,80.8179 C194.388,80.9779 192.963,61.1319 192.094,47.7709 C192.163,46.4119 191.023,30.4829 193.156,33.7119" id="Fill-30" fill="#fff" blush:i="0.1.0.0.0.2.6"/>
              <path d="M67.2205,21.0088 C67.2985,20.8618 67.2765,20.7288 67.2085,20.6198 C72.3155,21.4048 77.3565,22.5958 82.3775,23.9278 C92.4055,26.2538 102.5685,27.9908 112.7825,29.3578 C111.8835,30.6038 110.6675,33.7918 110.2815,34.4118 C107.8905,39.6418 105.2965,45.4288 102.5595,50.4438 C89.3425,74.9698 72.8945,85.5958 45.7185,77.8218 C50.1555,62.2268 57.3365,43.5268 67.2205,21.0088 M239.5335,185.9398 C230.9725,161.6608 185.7965,162.1778 164.2605,160.4838 C62.8785,155.1268 25.6705,148.9458 45.5745,78.3278 C46.6655,78.7348 48.5425,79.5628 49.4175,79.8198 C85.9785,91.8408 102.3785,57.6088 113.7425,29.4918 C113.7425,29.4888 113.7415,29.4878 113.7415,29.4858 C121.4005,30.4908 129.0845,31.2968 136.7665,31.9548 C163.4465,34.1348 203.9595,39.1698 226.6795,23.0668 C227.4905,22.4508 226.3935,21.2698 225.7165,21.9178 C203.2235,37.9268 163.3145,33.0388 136.8415,30.9808 C118.6345,29.4928 100.3705,27.2478 82.5525,23.1878 C66.8595,18.3558 50.3635,17.4048 34.1405,19.2568 C32.8635,20.3318 38.3665,19.8748 40.2195,19.8258 C46.1245,19.5298 52.5625,19.3158 58.4425,19.7318 C61.1575,19.8488 63.8445,20.1328 66.5165,20.5238 C66.4895,20.5528 66.4605,20.5798 66.4415,20.6208 C63.8495,25.8218 61.4375,31.0938 59.1145,36.4108 C50.0335,57.7248 41.8935,79.8598 39.2625,103.0238 C33.6475,141.0808 63.4525,151.3998 94.8245,156.3968 C117.7855,159.9928 141.0045,160.9788 164.1575,162.3168 C180.7955,163.3178 199.6235,163.6438 215.4865,168.9448 C224.8725,172.2768 239.4585,178.1238 237.8925,190.2208 C234.0505,201.6398 219.7385,203.2718 209.4475,205.1948 C192.5195,209.5038 176.5595,216.7088 160.5425,223.4948 C118.2585,242.1818 76.4425,262.5768 35.4205,283.9088 C35.4415,283.9198 35.4425,283.9218 35.4515,283.9278 C35.4565,283.9338 35.4585,283.9378 35.4635,283.9438 C35.3895,283.9388 34.7985,283.7678 35.7225,284.7518 C35.7735,284.7368 35.8095,284.7088 35.8465,284.6838 C35.7865,284.6548 35.7405,284.5998 35.8735,284.6528 C35.8835,284.6478 35.8935,284.6428 35.9035,284.6368 C35.9085,284.6308 35.9115,284.6238 35.9165,284.6178 C35.9175,284.6208 35.9195,284.6258 35.9205,284.6288 C76.9475,263.4728 118.7995,243.2188 161.0685,224.7048 C177.0145,218.0088 192.9815,210.8668 209.7735,206.6458 C221.3545,204.7848 240.9495,201.3678 239.5335,185.9398" id="Fill-32" fill="#fff" blush:i="0.1.0.0.0.2.7"/>
            </g>
          </g>
        </g>
        <g id="Upper Body/Standing" transform="translate(69.000000, -172.000000) scale(1 1)" blush:width="906" blush:height="1041" blush:component="Upper Body/Standing" blush:i="0.1.0.1" blush:value="Hands Up 1" blush:viewBox="236.91379310344826 20.819999999999936 484.24137931034477 827.5950000000001">
          <g id="Upper Body/Standing/Hands Up 1" stroke="none" stroke-width="1" fill="none" fill-rule="evenodd" blush:viewBox="236.91379310344826 20.819999999999936 484.24137931034477 827.5950000000001" blush:i="0.1.0.1.0">
            <path d="M618.80649,189.842661 C618.80649,189.842661 651.924998,118.822147 655.08097,111.742496 C667.567632,83.7317223 658.329949,85.8038774 661.60891,69.8882704 C665.301614,51.9733458 659.673114,42.8264885 661.60891,41.6944412 C672.610069,35.2648517 674.988589,60.7833778 676.437688,56.071343 C681.296667,40.2826292 690.094195,35.1489492 695.278971,29.367814 C702.159692,21.6962696 713.969348,34.81523 717.00446,38.3552511 C723.906168,46.4044777 720.490292,62.3627117 717.00446,75.5216384 C709.531108,103.7309 695.826209,99.6120707 684.204436,122.552766 C679.9291,130.99167 670.017059,181.425678 655.08097,231.763492 C629.412354,318.272216 593.897039,420.031571 582.694898,420.031571 C570.243741,420.031571 532.809412,422.210537 529.566876,420.031571 C524.43225,416.581131 554.178789,339.851495 618.80649,189.842661 Z" id="hand-2" fill="#efbb96" blush:color="Skin-500" blush:i="0.1.0.1.0.0"/>
            <path d="M499.588011,502.133487 C495.343107,493.907325 477.913227,476.395032 484.450913,464.212308 C490.988599,452.030576 512.58439,460.589588 515.792507,466.037042 C534.005408,496.959445 507.077567,516.648145 499.588011,502.133487" id="t-4" fill="#1d64f2" blush:i="0.1.0.1.0.1"/>
            <path d="M293.858856,248.851213 C293.858856,248.851213 285.957527,123.190291 280.435777,105.730071 C274.913026,88.2708496 272.961463,90.3836502 257.712583,77.6677724 C240.061202,62.9460181 240.84177,54.9800579 243.576291,53.9429763 C251.386441,57.1211392 224.26696,27.2688853 244.954573,22.2321847 C272.243288,15.5883495 275.21434,37.7951213 288.625305,41.6529605 C290.931707,42.3155893 284.891417,31.6105852 290.0608,26.3375387 C295.490454,20.7986411 295.826805,29.650683 298.052122,33.2006946 C304.731077,43.8487306 309.652202,62.7531422 309.652202,74.4695797 C309.652202,90.0928291 348.453607,215.336679 348.453607,215.336679 C375.583733,343.1908 387.183934,409.405409 383.254211,413.980509 C367.549054,432.264918 340.96651,437.514299 333.75982,440.965904 C330.149513,442.69504 316.849191,378.65681 293.858856,248.851213 Z" id="hand-1" fill="#efbb96" blush:color="Skin-500" blush:i="0.1.0.1.0.2"/>
            <path d="M446.712995,420 C446.712995,420 445.881817,449.599337 440.193919,465.472803 C437.002024,474.380564 421.321889,468.288429 429.178278,486.198077 C443.5211,518.894385 502.541109,560.913797 513.692563,550.334893 C524.841653,539.759062 542.629214,534.779291 529.172344,502.008121 C527.434745,497.778389 497.862778,482.511381 496.490937,477.918414 C487.920186,449.238888 498.61233,420 498.61233,420 L446.712995,420 Z" id="neck" fill="#efbb96" blush:color="Skin-500" blush:i="0.1.0.1.0.3"/>
            <g id="tshirt" transform="translate(284.000000, 173.000000)" fill="#1d64f2" blush:i="0.1.0.1.0.4">
              <path d="M280.213721,105.528538 C295.457321,67.6228011 328.287344,25.9722546 325.304393,14.5177703 C322.321443,3.06328592 327.306872,-0.0397483352 331.532193,1 C339.916957,3.06328592 370.7207,17.0958236 381.0077,22.2388236 C391.2947,27.3828236 386.1517,33.3838236 386.1517,33.3838236 C386.1517,33.3838236 355.205809,120.226593 346.479399,147.882824 C325.304393,214.991844 307.488611,264.097331 295.155027,292.312036 C280.836988,325.066443 280.213721,364.017529 280.213721,364.017529 C280.213721,364.017529 234.592728,362.268392 237.299269,336 C240.435735,305.558968 209.246583,301.068667 209.246583,284.293633 C209.246583,265.700454 264.970121,143.434275 280.213721,105.528538 Z" id="t-3" blush:i="0.1.0.1.0.4.0"/>
              <path d="M218.057498,356.726098 C236.35046,354.646966 229.144391,316.111887 229.144391,316.111887 C229.144391,316.111887 253.732874,330.203285 269.710874,333.757285 C269.710874,356.444285 305.313652,384.127106 302.376,431.569461 C299.438348,479.011817 280.423,582.156644 297.139,608.424644 C313.856,634.694644 309.541,641.146424 302.376,650.698424 C295.212,660.251424 247.262,676.009424 204.758,669.490424 C183.514,666.232424 124.296,646.528424 101.609,651.303424 C90.823,653.575424 75.522,666.252424 75.522,654.978424 C75.522,633.485424 100.559,623.973424 106.367,484.705424 C108.708,428.583424 77.211,381.492424 76.017,365.969424 C74.823,350.447424 78.405,347.461424 96.315,327.163424 C114.227,306.864424 122.897,246.884424 133.699,267.138424 C144.501,287.391424 161.449,289.995424 167.958,328.357424 C167.958,328.357424 209.509083,357.69769 218.057498,356.726098 Z" id="t-2" blush:i="0.1.0.1.0.4.1"/>
              <path d="M0,52.6924236 C0,52.6924236 25.846,27.8874236 51.775,23.9984236 C77.706,20.1084236 69.85,28.7884236 69.85,28.7884236 C69.85,28.7884236 95.402,202.823424 116.146,236.533424 C136.891,270.242424 143.151,283.340424 143.151,283.340424 L79.775,377.169424 C79.775,377.169424 33.77,300.302424 31.176,249.738424 C28.583,199.173424 25.315,181.545424 20.129,163.393424 C14.943,145.243424 2.593,78.6234236 0,52.6924236" id="t-1" blush:i="0.1.0.1.0.4.2"/>
            </g>
          </g>
        </g>
        <g id="Head" transform="translate(399.000000, 26.000000) scale(1 1)" blush:width="300" blush:height="300" blush:component="Head" blush:i="0.1.0.2" blush:value="Bob" blush:viewBox="30.00000000000003 67.5 244.50000000000006 223.49999999999994">
          <g id="Head/Bob" stroke="none" stroke-width="1" fill="none" fill-rule="evenodd" blush:viewBox="30.00000000000003 67.5 244.50000000000006 223.49999999999994" blush:i="0.1.0.2.0">
            <path d="M200.312971,280.831037 L199.0091,269.031172 L203.028919,280.831037 C203.028919,280.831037 272.0771,278.575911 273.1951,266.016847 C274.3131,253.457784 242.6101,197.287292 242.6101,161.552701 C243.277358,170.931064 260.891609,215.864447 266.217104,219.812973 C252.515374,196.698392 239.791189,130.063774 238.841508,125.071693 C234.91774,104.44608 233.705096,104.321796 228.770911,97.8722543 C221.012911,87.7330761 179.3731,65.8174703 166.3801,88.8751841 C152.8761,112.838131 170.5331,143.41152 166.3801,174.020024 C159.3711,225.661402 163.299225,269.031172 171.8301,282.6958 L200.312971,280.831037 Z" id="Fill-1" fill="#333" blush:i="0.1.0.2.0.0"/>
            <path d="M230.8389,97.6343 C230.8389,97.6343 238.0639,177.5813 238.0639,199.9423 C238.0639,222.3023 236.7369,248.7503 213.1079,256.4113 C187.8319,264.6073 137.3559,250.1773 126.1459,246.9403 C77.9229,233.0193 108.0249,135.0243 114.7329,102.6023 C121.4409,70.1793 230.8389,97.6343 230.8389,97.6343" id="Fill-3" fill="#efbb96" blush:color="Skin-500" blush:i="0.1.0.2.0.1"/>
            <path d="M126.2676,148.6548 C126.2676,148.6548 118.4416,198.1448 126.2676,223.8588 C134.0936,249.5738 135.6756,280.546539 130.9716,287.3348 C126.2676,294.123061 109.348382,288.909511 96.5953269,288.7038 C84.5063209,288.5088 80.5752089,289.415175 78.4296,288.5088 C74.7606,282.8658 74.8386,273.0508 74.8386,273.0508 L74.8386,288.7038 C74.8386,288.7038 30.5292728,285.333758 30.5292728,262.271056 C30.5292728,253.031937 41.6180601,216.214548 53.1670161,177.382874 C66.1654325,133.677601 81.8808794,87.4207056 123.9716,75.0600229 C164.364651,63.1978909 210.215619,67.219891 229.733297,92.9883268 C245.797767,114.197626 235.50972,142.117953 235.50972,142.117953 C229.485526,140.42811 219.351296,139.583188 205.107029,139.583188 C195.288948,139.583188 180.653609,140.42811 161.201011,142.117953 L157.3686,117.0518 L157.3686,143.188942 L126.2676,148.6548 Z" id="Fill-5" fill="#333" blush:i="0.1.0.2.0.2"/>
            <path d="M142.6573,251.2876 C149.0663,252.9406 154.4483,253.7906 160.4163,255.0806 C161.2683,255.2656 162.7693,255.5526 162.9693,255.7186 C164.1853,256.7296 161.9683,257.8536 157.5003,256.9906 C150.9573,255.7256 140.4883,250.7276 142.6573,251.2876" id="Fill-8" fill="#000" blush:i="0.1.0.2.0.3"/>
          </g>
        </g>
        <g id="Expressions" transform="translate(520.000000, 159.000000) scale(1 1)" blush:width="120" blush:height="120" blush:component="Expressions" blush:i="0.1.0.3" blush:value="Smile" blush:viewBox="21 10.200000000000003 89.4 88.80000000000001">
          <g id="Expressions/Smile" stroke="none" stroke-width="1" fill="none" fill-rule="evenodd" blush:viewBox="21 10.200000000000003 89.4 88.80000000000001" blush:i="0.1.0.3.0">
            <g id="eye1" transform="translate(21.027098, 10.213671)" blush:i="0.1.0.3.0.0">
              <path d="M0.0487023333,7.96572872 C1.82485498,-0.0171869856 25.1977023,-2.81531309 35.4827023,3.36568691 C39.0387023,5.47868691 45.6427023,11.2837287 39.7957023,14.4437287 C38.2517023,15.1157287 36.7517023,14.4267287 35.4827023,13.6077287 C21.4647023,3.86572872 -1.18942441,13.5304877 0.0487023333,7.96572872 Z" id="Fill-1" fill="#333" blush:i="0.1.0.3.0.0.0"/>
              <path d="M19.0113023,22.3973287 C13.7233023,23.8973287 9.19030233,28.1473287 8.76930233,31.6693287 C8.51430233,33.7973287 16.8643023,38.9063287 24.9173023,39.3033287 C35.5113023,39.8243287 40.8513023,34.0853287 40.8324531,32.2513287 C40.1193023,26.7013287 33.7283023,18.2233287 19.0113023,22.3973287 Z" id="Fill-6" fill="#FFF" blush:i="0.1.0.3.0.0.1"/>
              <path d="M35.3981023,25.5550287 C27.2551023,19.4010287 14.6431023,23.4110287 8.76910233,31.6690287 C8.43210233,32.0970287 8.52910233,31.0200287 8.76310233,30.5290287 C11.5971023,24.5820287 16.7101023,21.7750287 22.6381023,20.5510287 C26.2051023,19.8140287 29.5311023,19.7540287 33.0101023,21.3120287 C34.3551023,21.9130287 36.7311023,23.7450287 38.5671023,25.8170287 C39.9991023,27.4320287 41.2051023,30.2010287 39.5481023,29.2220287 C38.2511023,28.4550287 36.4781023,26.3720287 35.3981023,25.5550287 Z" id="Fill-8" fill="#f3f4f6" blush:i="0.1.0.3.0.0.2"/>
              <path d="M24.8135023,36.0623287 C29.3405023,36.0623287 33.0105023,32.7143287 33.0105023,28.5833287 C33.0105023,24.4533287 29.3405023,21.1043287 24.8135023,21.1043287 C20.2865023,21.1043287 16.6165023,24.4533287 16.6165023,28.5833287 C16.6165023,32.7143287 20.2865023,36.0623287 24.8135023,36.0623287 Z" id="Fill-10" fill="#000" blush:i="0.1.0.3.0.0.3"/>
            </g>
            <g id="eye2" transform="translate(81.203378, 15.000183)" blush:i="0.1.0.3.0.1">
              <path d="M23.2557812,1.861246 C26.6096324,3.34897691 31.0744206,8.28711729 27.357522,8.28711729 C23.6406234,8.28711729 15.5900245,7.23270759 10.1930245,9.45970759 C8.30802454,9.94170759 6.87752199,10.8641173 4.98452199,11.0891173 C0.67652199,11.9281173 -1.66408888,6.76839233 1.38185604,3.64904337 C4.82290212,0.125071736 16.4397812,-1.545754 23.2557812,1.861246 Z" id="Fill-4" fill="#333" blush:i="0.1.0.3.0.1.0"/>
              <path d="M19.455322,34.2343173 C24.826322,32.9853173 28.843322,28.1153173 28.389322,24.4763173 C27.503322,19.6543173 18.218322,16.5753173 13.017322,19.2083173 C7.86632199,21.8153173 4.64332199,27.6403173 5.05932199,29.9403173 C5.66032199,31.5323173 13.966322,35.5113173 19.455322,34.2343173 Z" id="Fill-12" fill="#FFF" blush:i="0.1.0.3.0.1.1"/>
              <path d="M15.011222,31.6060173 C18.549222,31.6060173 21.417222,28.8520173 21.417222,25.4560173 C21.417222,22.0590173 19.396222,18.8490173 15.011222,19.3060173 C11.492222,19.6720173 8.60422199,22.0590173 8.60422199,25.4560173 C8.60422199,28.8520173 11.473222,31.6060173 15.011222,31.6060173 Z" id="Fill-14" fill="#000" blush:i="0.1.0.3.0.1.2"/>
              <path d="M5.25072199,26.6376173 C7.27972199,19.0636173 16.440722,15.1686173 23.685722,18.7546173 C24.705722,19.2866173 26.361722,20.4806173 27.601722,21.9226173 C28.742722,23.2526173 28.593722,23.9496173 28.127722,23.8116173 C27.355722,23.5816173 25.722722,22.1166173 24.395722,21.4866173 C17.685722,18.3036173 10.704722,20.0896173 5.59372199,27.5586173 C5.34272199,27.9456173 5.10472199,27.0746173 5.25072199,26.6376173" id="Fill-22" fill="#f3f4f6" blush:i="0.1.0.3.0.1.3"/>
            </g>
            <path d="M86.9879908,70.3386563 C86.0131141,75.2575144 79.9689699,75.7359636 76.0323155,74.6212963 C72.832522,73.7152719 72.0034674,71.851321 73.0853454,71.2537752 C74.8485675,70.2799076 80.4997296,72.9889887 82.5858367,70.4027854 C86.305606,65.7912866 74.8914605,48.8346319 78.5177277,51.5592059 C83.3102149,55.1600121 87.6386051,67.0559034 86.9879908,70.3386563 Z" id="nose" fill="#673c1e" blush:i="0.1.0.3.0.2"/>
            <path d="M89.6387968,90.5818454 C88.8707672,91.1602445 87.0677709,93.5463983 85.244688,95.0617056 C81.1444698,98.4697185 74.4745751,99.2530639 70.5444286,98.4697185 C63.1559339,96.997065 59.9595527,92.178225 58.0067117,90.8585998 C56.0538707,89.5389745 59.7200172,87.8442758 62.5249361,88.0931395 C65.3298551,88.3420033 67.2123883,89.156182 72.5654423,91.4592717 C76.0199316,92.9455259 83.8310598,90.8585998 86.0381944,89.5389745 C90.2484115,87.021725 91.5113061,89.1716685 89.6387968,90.5818454 Z" id="Fill-18" fill="#f3f4f6" blush:i="0.1.0.3.0.3"/>
          </g>
        </g>
        <g id="Facial Accesories" transform="translate(517.000000, 209.000000) scale(1 1)" fill="#000" blush:width="120" blush:height="110" blush:component="Facial Accesories" blush:i="0.1.0.4" blush:value="None" blush:viewBox="210 192.5 0 0">
          <g id="Facial Accesories/None" stroke="none" stroke-width="1" fill="none" fill-rule="evenodd" fill-opacity="0" blush:viewBox="210 192.5 0 0" blush:i="0.1.0.4.0"/>
        </g>
        <g id="Glass" transform="translate(520.000000, 164.000000) scale(1 1)" fill="#000" blush:width="120" blush:height="75" blush:component="Glass" blush:i="0.1.0.5" blush:value="None" blush:viewBox="210 131.25 0 0">
          <g id="Glass/None" stroke="none" stroke-width="1" fill="none" fill-rule="evenodd" fill-opacity="0" blush:viewBox="210 131.25 0 0" blush:i="0.1.0.5.0"/>
        </g>
      </g>
    </g>
  </g>
</svg>