<svg width="1440" height="762" viewBox="0 0 1440 762" fill="none" xmlns="http://www.w3.org/2000/svg">
<mask id="mask0_28_125" style="mask-type:alpha" maskUnits="userSpaceOnUse" x="0" y="0" width="1440" height="762">
<path d="M0 0H1440V761H0V0Z" fill="white"/>
<path d="M1440 760.5H0V761.5H1440V760.5Z" fill="#f1f1f1"/>
</mask>
<g mask="url(#mask0_28_125)">
<path d="M1096 0.5C1102.67 42.6667 1139.5 131.3 1233.5 148.5C1351 170 1403.5 239.5 1439.5 325" stroke="#f1f1f1"/>
<path d="M1096 -14C1102.67 28.1667 1139.5 116.8 1233.5 134C1351 155.5 1403.5 225 1439.5 310.5" stroke="#f1f1f1"/>
<path d="M1096 -28.5C1102.67 13.6667 1139.5 102.3 1233.5 119.5C1351 141 1403.5 210.5 1439.5 296" stroke="#f1f1f1"/>
<path d="M1096 -43C1102.67 -0.833332 1139.5 87.8 1233.5 105C1351 126.5 1403.5 196 1439.5 281.5" stroke="#f1f1f1"/>
<path d="M1096 -57.5C1102.67 -15.3333 1139.5 73.3 1233.5 90.5C1351 112 1403.5 181.5 1439.5 267" stroke="#f1f1f1"/>
<path d="M1096 -72C1102.67 -29.8333 1139.5 58.8 1233.5 76C1351 97.5 1403.5 167 1439.5 252.5" stroke="#f1f1f1"/>
<path d="M1096 -86.5C1102.67 -44.3333 1139.5 44.3 1233.5 61.5C1351 83 1403.5 152.5 1439.5 238" stroke="#f1f1f1"/>
<path d="M1096 -101C1102.67 -58.8333 1139.5 29.8 1233.5 47C1351 68.5 1403.5 138 1439.5 223.5" stroke="#f1f1f1"/>
<path d="M1096 -115.5C1102.67 -73.3333 1139.5 15.3 1233.5 32.5C1351 54 1403.5 123.5 1439.5 209" stroke="#f1f1f1"/>
<path d="M1096 -130C1102.67 -87.8333 1139.5 0.799999 1233.5 18C1351 39.5 1403.5 109 1439.5 194.5" stroke="#f1f1f1"/>
<path d="M1096 -144.5C1102.67 -102.333 1139.5 -13.7 1233.5 3.5C1351 25 1403.5 94.5 1439.5 180" stroke="#f1f1f1"/>
<path d="M1096 -159C1102.67 -116.833 1139.5 -28.2 1233.5 -11C1351 10.5 1403.5 80 1439.5 165.5" stroke="#f1f1f1"/>
<path d="M343.5 760.5C336.833 718.333 300 629.7 206 612.5C88.5 591 36 521.5 2.14889e-06 436" stroke="#f1f1f1"/>
<path d="M343.5 775C336.833 732.833 300 644.2 206 627C88.5 605.5 36 536 2.14889e-06 450.5" stroke="#f1f1f1"/>
<path d="M343.5 789.5C336.833 747.333 300 658.7 206 641.5C88.5 620 36 550.5 2.14889e-06 465" stroke="#f1f1f1"/>
<path d="M343.5 804C336.833 761.833 300 673.2 206 656C88.5 634.5 36 565 2.14889e-06 479.5" stroke="#f1f1f1"/>
<path d="M343.5 818.5C336.833 776.333 300 687.7 206 670.5C88.5 649 36 579.5 2.14889e-06 494" stroke="#f1f1f1"/>
<path d="M343.5 833C336.833 790.833 300 702.2 206 685C88.5 663.5 36 594 2.14889e-06 508.5" stroke="#f1f1f1"/>
<path d="M343.5 847.5C336.833 805.333 300 716.7 206 699.5C88.5 678 36 608.5 2.14889e-06 523" stroke="#f1f1f1"/>
<path d="M343.5 862C336.833 819.833 300 731.2 206 714C88.5 692.5 36 623 2.14889e-06 537.5" stroke="#f1f1f1"/>
<path d="M343.5 876.5C336.833 834.333 300 745.7 206 728.5C88.5 707 36 637.5 2.14889e-06 552" stroke="#f1f1f1"/>
<path d="M343.5 891C336.833 848.833 300 760.2 206 743C88.5 721.5 36 652 2.14889e-06 566.5" stroke="#f1f1f1"/>
<path d="M343.5 905.5C336.833 863.333 300 774.7 206 757.5C88.5 736 36 666.5 2.14889e-06 581" stroke="#f1f1f1"/>
<path d="M343.5 920C336.833 877.833 300 789.2 206 772C88.5 750.5 36 681 2.14889e-06 595.5" stroke="#f1f1f1"/>
</g>
</svg>
