<svg xmlns="http://www.w3.org/2000/svg" version="1.1" xmlns:xlink="http://www.w3.org/1999/xlink" xmlns:svgjs="http://svgjs.dev/svgjs" width="1000" height="1000" viewBox="0 0 1000 1000"><rect width="1000" height="1000" fill="#ffffff"></rect><g transform="matrix(0.7,0,0,0.7,149.57575757575756,282.1265587044535)"><svg viewBox="0 0 396 247" data-background-color="#ffffff" preserveAspectRatio="xMidYMid meet" height="623" width="1000" xmlns="http://www.w3.org/2000/svg" xmlns:xlink="http://www.w3.org/1999/xlink"><g id="tight-bounds" transform="matrix(1,0,0,1,0.2400000000000091,-0.09999999999999432)"><svg viewBox="0 0 395.52 247.2" height="247.2" width="395.52"><g><svg></svg></g><g><svg viewBox="0 0 395.52 247.2" height="247.2" width="395.52"><g transform="matrix(1,0,0,1,93.77546258082191,47.215199999999996)"><svg viewBox="0 0 207.96907483835616 152.7696" height="152.7696" width="207.96907483835616"><g><svg viewBox="0 0 207.96907483835616 152.7696" height="152.7696" width="207.96907483835616"><g><svg viewBox="0 0 244.43135999999998 179.55400880481773" height="152.7696" width="207.96907483835616"><g><svg viewBox="0 0 244.43135999999998 179.55400880481773" height="179.55400880481773" width="244.43135999999998"><g id="textblocktransform"><svg viewBox="0 0 244.43135999999998 179.55400880481773" height="179.55400880481773" width="244.43135999999998" id="textblock"><g><svg viewBox="0 0 244.43135999999998 96.84285261489697" height="96.84285261489697" width="244.43135999999998"><g transform="matrix(1,0,0,1,0,0)"><svg width="244.43135999999998" viewBox="0.9000000357627869 -37.5 126.18999481201172 50" height="96.84285261489697" data-palette-color="#ed1703"><path d="M10.65-31.8L17.85-32.8 17.85-16.1Q19.4-16.25 20.58-17.28 21.75-18.3 22.58-19.85 23.4-21.4 23.83-23.28 24.25-25.15 24.25-27.05L24.25-27.05Q24.25-28.25 23.98-29.68 23.7-31.1 22.83-32.33 21.95-33.55 20.28-34.38 18.6-35.2 15.8-35.2L15.8-35.2Q13.55-35.2 11.7-34.6 9.85-34 8.5-32.77 7.15-31.55 6.4-29.63 5.65-27.7 5.65-25.1L5.65-25.1Q5.65-23.75 5.83-22.88 6-22 6.28-21.4 6.55-20.8 6.85-20.4 7.15-20 7.4-19.65L7.4-19.65Q4.4-19.65 2.65-21.05 0.9-22.45 0.9-25.45L0.9-25.45Q0.9-28 2.13-30.2 3.35-32.4 5.48-34.02 7.6-35.65 10.43-36.58 13.25-37.5 16.4-37.5L16.4-37.5Q19.45-37.5 21.95-36.7 24.45-35.9 26.25-34.43 28.05-32.95 29.03-30.88 30-28.8 30-26.25L30-26.25Q30-24.2 29.25-22.05 28.5-19.9 27-18.18 25.5-16.45 23.28-15.35 21.05-14.25 18.1-14.25L18.1-14.25 17.85-14.25 17.85 0 10.65 0 10.65-31.8ZM42.35-3.9L42.35-3.9Q43.85-3.9 45-4.3 46.15-4.7 47.05-5.38 47.95-6.05 48.7-6.98 49.45-7.9 50.15-8.95L50.15-8.95 51.85-8.95Q51.15-7.2 50.17-5.55 49.2-3.9 47.77-2.6 46.35-1.3 44.45-0.5 42.55 0.3 40 0.3L40 0.3Q37.85 0.3 36.05-0.35 34.25-1 32.92-2.38 31.6-3.75 30.87-5.93 30.15-8.1 30.15-11.15L30.15-11.15Q30.15-13.3 30.62-15.78 31.1-18.25 32.3-20.35 33.5-22.45 35.55-23.85 37.6-25.25 40.75-25.25L40.75-25.25Q43.15-25.25 44.45-24.5 45.75-23.75 46.37-22.75 47-21.75 47.12-20.8 47.25-19.85 47.25-19.45L47.25-19.45Q47.25-17.2 46.42-15.5 45.6-13.8 44.22-12.63 42.85-11.45 41.07-10.83 39.3-10.2 37.45-10.1L37.45-10.1Q37.5-6.75 38.57-5.33 39.65-3.9 42.35-3.9ZM43.4-19.4L43.4-19.4Q43.4-21.15 42.8-21.88 42.2-22.6 41.5-22.6L41.5-22.6Q40.65-22.6 39.95-21.78 39.25-20.95 38.72-19.58 38.2-18.2 37.87-16.35 37.55-14.5 37.45-12.5L37.45-12.5Q38.7-12.6 39.8-13.18 40.9-13.75 41.7-14.68 42.5-15.6 42.95-16.8 43.4-18 43.4-19.4ZM62.9-15.1L62.9-15.1Q62.9-18.1 62.22-19.38 61.55-20.65 60.3-20.65L60.3-20.65Q59.55-20.65 59.02-20.25 58.5-19.85 58.15-19.2 57.8-18.55 57.59-17.73 57.4-16.9 57.34-16.05L57.34-16.05 57.34 0 50.15 0 50.15-25 57.34-25 57.34-22.4Q58.5-24.15 59.95-24.68 61.4-25.2 62.7-25.2L62.7-25.2Q64.09-25.2 65.37-24.75 66.65-24.3 67.62-23.23 68.59-22.15 69.15-20.38 69.7-18.6 69.7-16L69.7-16Q69.7-15.35 69.67-14.38 69.65-13.4 69.59-12.4 69.55-11.4 69.52-10.45 69.5-9.5 69.5-8.85L69.5-8.85Q69.5-6.7 69.95-5.63 70.4-4.55 71.95-4.55L71.95-4.55Q73.65-4.55 74.32-5.8 75-7.05 75.4-8.95L75.4-8.95 77.5-8.95Q77.09-5.95 76.3-4.13 75.5-2.3 74.5-1.33 73.5-0.35 72.34-0.03 71.2 0.3 70.09 0.3L70.09 0.3Q66.25 0.3 64.52-2.25 62.8-4.8 62.8-9.05L62.8-9.05Q62.8-9.5 62.82-10.33 62.84-11.15 62.84-12.05 62.84-12.95 62.87-13.78 62.9-14.6 62.9-15.1ZM88.14-15.1L88.14-15.1Q88.14-18.1 87.47-19.38 86.79-20.65 85.54-20.65L85.54-20.65Q84.79-20.65 84.27-20.25 83.74-19.85 83.39-19.2 83.04-18.55 82.84-17.73 82.64-16.9 82.59-16.05L82.59-16.05 82.59 0 75.39 0 75.39-25 82.59-25 82.59-22.4Q83.74-24.15 85.19-24.68 86.64-25.2 87.94-25.2L87.94-25.2Q89.34-25.2 90.62-24.75 91.89-24.3 92.87-23.23 93.84-22.15 94.39-20.38 94.94-18.6 94.94-16L94.94-16Q94.94-15.35 94.92-14.38 94.89-13.4 94.84-12.4 94.79-11.4 94.77-10.45 94.74-9.5 94.74-8.85L94.74-8.85Q94.74-6.7 95.19-5.63 95.64-4.55 97.19-4.55L97.19-4.55Q98.89-4.55 99.57-5.8 100.24-7.05 100.64-8.95L100.64-8.95 102.74-8.95Q102.34-5.95 101.54-4.13 100.74-2.3 99.74-1.33 98.74-0.35 97.59-0.03 96.44 0.3 95.34 0.3L95.34 0.3Q91.49 0.3 89.77-2.25 88.04-4.8 88.04-9.05L88.04-9.05Q88.04-9.5 88.07-10.33 88.09-11.15 88.09-12.05 88.09-12.95 88.12-13.78 88.14-14.6 88.14-15.1ZM112.99-25L120.19-25 120.19-1.8Q121.24-2.2 122.04-2.75 122.84-3.3 123.44-4.13 124.04-4.95 124.42-6.13 124.79-7.3 124.99-8.95L124.99-8.95 127.09-8.95Q126.84-6.45 126.17-4.83 125.49-3.2 124.52-2.15 123.54-1.1 122.42-0.5 121.29 0.1 120.19 0.45L120.19 0.45 120.19 4Q120.19 6.65 119.54 8.33 118.89 10 117.87 10.93 116.84 11.85 115.62 12.18 114.39 12.5 113.24 12.5L113.24 12.5Q111.79 12.5 110.52 12.1 109.24 11.7 108.32 10.98 107.39 10.25 106.84 9.2 106.29 8.15 106.29 6.85L106.29 6.85Q106.29 5.5 106.87 4.42 107.44 3.35 108.39 2.55 109.34 1.75 110.54 1.18 111.74 0.6 112.99 0.2L112.99 0.2 112.99-2.55Q112.34-1.6 111.62-1.05 110.89-0.5 110.17-0.2 109.44 0.1 108.72 0.2 107.99 0.3 107.34 0.3L107.34 0.3Q103.79 0.3 102.22-1.8 100.64-3.9 100.64-7.45L100.64-7.45 100.64-25 107.84-25 107.84-8Q107.84-6.1 108.37-5.33 108.89-4.55 109.89-4.55L109.89-4.55Q111.24-4.55 112.04-5.8 112.84-7.05 112.99-8.95L112.99-8.95 112.99-25ZM108.94 6.4L108.94 6.4Q108.94 7.4 109.62 8 110.29 8.6 110.99 8.6L110.99 8.6Q111.89 8.6 112.44 7.5 112.99 6.4 112.99 4.15L112.99 4.15 112.99 2.7Q111.29 3.4 110.12 4.3 108.94 5.2 108.94 6.4Z" opacity="1" transform="matrix(1,0,0,1,0,0)" fill="#000000" class="wordmark-text-0" data-fill-palette-color="primary" id="text-0"></path></svg></g></svg></g><g transform="matrix(1,0,0,1,0,119.70512588881138)"><svg viewBox="0 0 244.43135999999998 59.84888291600633" height="59.84888291600633" width="244.43135999999998"><g transform="matrix(1,0,0,1,0,0)"><svg width="244.43135999999998" viewBox="1.6500000953674316 -37.5 204.2100067138672 50" height="59.84888291600633" data-palette-color="#ff716a"><path d="M22.8-31.2L22.8-31.2Q22.8-29.3 21.98-28.13 21.15-26.95 19.6-26.95L19.6-26.95Q18.2-26.95 17.1-28L17.1-28Q17.8-28.5 18.18-29.45 18.55-30.4 18.55-31.4L18.55-31.4Q18.55-32.95 17.55-33.95 16.55-34.95 14.5-34.95L14.5-34.95Q12.25-34.95 11.25-33.7 10.25-32.45 10.25-30.35L10.25-30.35Q10.25-27.9 11.43-26.35 12.6-24.8 14.35-23.58 16.1-22.35 18.13-21.25 20.15-20.15 21.9-18.65 23.65-17.15 24.83-15.03 26-12.9 26-9.6L26-9.6Q26-6.8 25.08-4.8 24.15-2.8 22.55-1.53 20.95-0.25 18.75 0.33 16.55 0.9 13.95 0.9L13.95 0.9Q11.65 0.9 9.43 0.43 7.2-0.05 5.48-1.13 3.75-2.2 2.7-3.98 1.65-5.75 1.65-8.3L1.65-8.3Q1.65-10 2.13-11.4 2.6-12.8 3.43-13.75 4.25-14.7 5.35-15.23 6.45-15.75 7.65-15.75L7.65-15.75Q8.25-15.75 8.95-15.6 9.65-15.45 10.35-15.08 11.05-14.7 11.65-14.05 12.25-13.4 12.6-12.45L12.6-12.45Q11.7-12.45 10.8-12.25 9.9-12.05 9.18-11.55 8.45-11.05 8-10.18 7.55-9.3 7.55-7.95L7.55-7.95Q7.55-5.35 9.15-4.23 10.75-3.1 13.15-3.1L13.15-3.1Q15.55-3.1 16.85-4.25 18.15-5.4 18.15-8.2L18.15-8.2Q18.15-10.8 17.07-12.6 16-14.4 14.35-15.75 12.7-17.1 10.83-18.28 8.95-19.45 7.3-20.83 5.65-22.2 4.58-24.05 3.5-25.9 3.5-28.6L3.5-28.6Q3.5-32.95 6.4-35.23 9.3-37.5 14.3-37.5L14.3-37.5Q15-37.5 16.43-37.38 17.85-37.25 19.28-36.63 20.7-36 21.75-34.73 22.8-33.45 22.8-31.2ZM64.09-17.25L64.09-17.25Q64.19-17.65 64.21-17.95 64.24-18.25 64.24-18.75L64.24-18.75Q64.24-20.8 63.66-21.7 63.09-22.6 62.19-22.6L62.19-22.6Q61.19-22.6 60.46-21.58 59.74-20.55 59.26-18.98 58.79-17.4 58.56-15.45 58.34-13.5 58.34-11.65L58.34-11.65Q58.34-9.3 58.66-7.8 58.99-6.3 59.64-5.45 60.29-4.6 61.26-4.25 62.24-3.9 63.49-3.9L63.49-3.9Q64.99-3.9 66.11-4.3 67.24-4.7 68.14-5.38 69.04-6.05 69.79-6.98 70.54-7.9 71.24-8.95L71.24-8.95 72.94-8.95Q72.24-7.2 71.26-5.55 70.29-3.9 68.86-2.6 67.44-1.3 65.51-0.5 63.59 0.3 61.04 0.3L61.04 0.3Q58.94 0.3 57.14-0.33 55.34-0.95 54.01-2.33 52.69-3.7 51.96-5.9 51.24-8.1 51.24-11.2L51.24-11.2Q51.24-13.3 51.66-15.78 52.09-18.25 53.24-20.35 54.39-22.45 56.36-23.85 58.34-25.25 61.49-25.25L61.49-25.25Q63.44-25.25 64.71-24.7 65.99-24.15 66.74-23.33 67.49-22.5 67.79-21.53 68.09-20.55 68.09-19.65L68.09-19.65Q68.09-18.35 67.56-17.5 67.04-16.65 66.14-16.65L66.14-16.65Q65.74-16.65 65.19-16.8 64.64-16.95 64.09-17.25ZM104.33-25.25L104.33-25.25Q107.78-25.25 109.83-23.38 111.88-21.5 112.48-17.35L112.48-17.35 112.83-17.35Q113.53-17.35 114.4-17.6 115.28-17.85 116.23-18.25 117.18-18.65 118.08-19.2 118.98-19.75 119.68-20.35L119.68-20.35 120.43-19Q119.88-18.2 119.05-17.55 118.23-16.9 117.18-16.38 116.13-15.85 114.98-15.48 113.83-15.1 112.68-14.9L112.68-14.9Q112.73-14.55 112.73-14.23 112.73-13.9 112.73-13.55L112.73-13.55Q112.73-10.65 112.23-8.13 111.73-5.6 110.55-3.73 109.38-1.85 107.53-0.78 105.68 0.3 102.98 0.3L102.98 0.3Q101.13 0.3 99.45-0.28 97.78-0.85 96.48-2.18 95.18-3.5 94.4-5.68 93.63-7.85 93.63-11L93.63-11Q93.63-13.15 94.08-15.63 94.53-18.1 95.73-20.25 96.93-22.4 99-23.83 101.08-25.25 104.33-25.25ZM104.38-4.4L104.38-4.4Q105.43-4.4 106.2-5.13 106.98-5.85 107.48-7.13 107.98-8.4 108.2-10.15 108.43-11.9 108.43-13.95L108.43-13.95 108.43-14.7Q107.18-14.95 106.83-15.65 106.48-16.35 106.48-17.2L106.48-17.2Q106.48-18.25 106.83-18.8 107.18-19.35 107.73-19.55L107.73-19.55Q107.18-21.25 106.4-21.75 105.63-22.25 105.08-22.25L105.08-22.25Q103.98-22.25 103.2-21.23 102.43-20.2 101.93-18.63 101.43-17.05 101.2-15.15 100.98-13.25 100.98-11.5L100.98-11.5Q100.98-9.25 101.3-7.85 101.63-6.45 102.13-5.7 102.63-4.95 103.23-4.67 103.83-4.4 104.38-4.4ZM149.52-25.25L149.52-25.25Q152.97-25.25 155.02-23.38 157.07-21.5 157.67-17.35L157.67-17.35 158.02-17.35Q158.72-17.35 159.59-17.6 160.47-17.85 161.42-18.25 162.37-18.65 163.27-19.2 164.17-19.75 164.87-20.35L164.87-20.35 165.62-19Q165.07-18.2 164.24-17.55 163.42-16.9 162.37-16.38 161.32-15.85 160.17-15.48 159.02-15.1 157.87-14.9L157.87-14.9Q157.92-14.55 157.92-14.23 157.92-13.9 157.92-13.55L157.92-13.55Q157.92-10.65 157.42-8.13 156.92-5.6 155.74-3.73 154.57-1.85 152.72-0.78 150.87 0.3 148.17 0.3L148.17 0.3Q146.32 0.3 144.64-0.28 142.97-0.85 141.67-2.18 140.37-3.5 139.59-5.68 138.82-7.85 138.82-11L138.82-11Q138.82-13.15 139.27-15.63 139.72-18.1 140.92-20.25 142.12-22.4 144.19-23.83 146.27-25.25 149.52-25.25ZM149.57-4.4L149.57-4.4Q150.62-4.4 151.39-5.13 152.17-5.85 152.67-7.13 153.17-8.4 153.39-10.15 153.62-11.9 153.62-13.95L153.62-13.95 153.62-14.7Q152.37-14.95 152.02-15.65 151.67-16.35 151.67-17.2L151.67-17.2Q151.67-18.25 152.02-18.8 152.37-19.35 152.92-19.55L152.92-19.55Q152.37-21.25 151.59-21.75 150.82-22.25 150.27-22.25L150.27-22.25Q149.17-22.25 148.39-21.23 147.62-20.2 147.12-18.63 146.62-17.05 146.39-15.15 146.17-13.25 146.17-11.5L146.17-11.5Q146.17-9.25 146.49-7.85 146.82-6.45 147.32-5.7 147.82-4.95 148.42-4.67 149.02-4.4 149.57-4.4ZM184.86-26.85L192.06-26.85 192.06-23.1Q192.91-24 194.21-24.63 195.51-25.25 197.36-25.25L197.36-25.25Q199.06-25.25 200.58-24.6 202.11-23.95 203.28-22.53 204.46-21.1 205.16-18.75 205.86-16.4 205.86-13.05L205.86-13.05Q205.86-10.65 205.43-8.25 205.01-5.85 203.96-3.95 202.91-2.05 201.13-0.88 199.36 0.3 196.71 0.3L196.71 0.3Q194.81 0.3 193.71-0.23 192.61-0.75 192.06-1.45L192.06-1.45 192.06 10.7 184.86 12.5 184.86-26.85ZM194.31-4.05L194.31-4.05Q195.61-4.05 196.51-4.93 197.41-5.8 197.93-7.2 198.46-8.6 198.68-10.33 198.91-12.05 198.91-13.75L198.91-13.75Q198.91-16.5 198.43-18.1 197.96-19.7 197.31-20.48 196.66-21.25 196.03-21.45 195.41-21.65 195.06-21.65L195.06-21.65Q194.16-21.65 193.31-21.03 192.46-20.4 192.06-19.15L192.06-19.15 192.06-5.2Q192.31-4.8 192.86-4.42 193.41-4.05 194.31-4.05Z" opacity="1" transform="matrix(1,0,0,1,0,0)" fill="#000000" class="slogan-text-1" data-fill-palette-color="secondary" id="text-1"></path></svg></g></svg></g></svg></g></svg></g><g></g></svg></g></svg></g></svg></g><g><path d="M157.41 27.763A103.985 103.985 0 0 1 238.11 27.763L230.679 27.763A96.554 96.554 0 0 0 164.841 27.763L157.41 27.763M157.41 219.437A103.985 103.985 0 0 0 238.11 219.437L230.679 219.437A96.554 96.554 0 0 1 164.841 219.437L157.41 219.437" fill="#000000" stroke="transparent" data-fill-palette-color="tertiary"></path></g></svg></g><defs></defs></svg><rect width="395.52" height="247.2" fill="none" stroke="none" visibility="hidden"></rect></g></svg></g></svg>