<svg xmlns="http://www.w3.org/2000/svg" viewBox="0 0 32 32"><defs><style>.cls-1{fill:#ffd400;}.cls-2{fill:#004e62;}</style></defs><g id="Layer_2" data-name="Layer 2"><g id="Layer_1-2" data-name="Layer 1"><rect class="cls-1" width="32" height="32" rx="3.43"/><path class="cls-2" d="M22,8.78H19.38V8.09a3.38,3.38,0,0,0-6.76,0v.69H10L9,21.49a2.08,2.08,0,0,0,2.08,2.08h.3V15.86a2.28,2.28,0,0,1,2.28-2.28h4.7a2.28,2.28,0,0,1,2.28,2.28v7.71h.3A2.08,2.08,0,0,0,23,21.49L22,8.78Zm-8.9,2.46a.51.51,0,1,1,0-1h0a.51.51,0,0,1,0,1Zm.5-2.46V8.09h0a2.37,2.37,0,0,1,4.74,0h0v.69Zm5.22,2.46a.5.5,0,0,1-.51-.5.51.51,0,0,1,.49-.52h0a.51.51,0,0,1,0,1Zm.87,11.86V15.86a1.38,1.38,0,0,0-1.37-1.37h-4.7a1.38,1.38,0,0,0-1.37,1.37v10a1.38,1.38,0,0,0,1.37,1.37h4.7a1.38,1.38,0,0,0,1.37-1.37V23.1Zm-3.13,3.59H15.27a.36.36,0,1,1,0-.71h1.32a.36.36,0,1,1,0,.71ZM19,16.77v8.28a.35.35,0,0,1-.35.35H13.36a.35.35,0,0,1-.35-.35V16.71a.35.35,0,0,1,.35-.35h5.28a.35.35,0,0,1,.35.35v.06Zm-2,5.39a1,1,0,0,1-.55.35.17.17,0,0,0-.13.18V23c0,.09,0,.14-.13.14h-.31c-.09,0-.13-.05-.13-.14v-.21c0-.16,0-.17-.15-.19a1.88,1.88,0,0,1-.56-.16c-.13-.06-.15-.1-.11-.24l.09-.32c0-.13.08-.14.19-.08a1.87,1.87,0,0,0,.61.18.82.82,0,0,0,.41-.05.31.31,0,0,0,.07-.55,1.09,1.09,0,0,0-.23-.14,5,5,0,0,1-.63-.28.89.89,0,0,1-.5-.85.93.93,0,0,1,.69-.86c.16-.06.16-.06.16-.24s0-.12,0-.17,0-.16.15-.16H16c.28,0,.28,0,.29.28s0,.2.19.23a1.39,1.39,0,0,1,.44.13.12.12,0,0,1,.08.17c0,.12-.07.24-.1.36s-.08.13-.19.07a1.35,1.35,0,0,0-.69-.13.39.39,0,0,0-.18,0,.26.26,0,0,0-.06.46,1.69,1.69,0,0,0,.29.17,4.56,4.56,0,0,1,.55.24A1,1,0,0,1,16.94,22.16Z"/></g></g></svg>