<svg xmlns="http://www.w3.org/2000/svg" viewBox="0 0 384 133.79"><defs><style>.cls-1{fill:#fff;}.cls-2{fill:#ffd400;}</style></defs><g id="Layer_2" data-name="Layer 2"><g id="Layer_1-2" data-name="Layer 1"><path class="cls-1" d="M77.32,24.14H61.58V20A20,20,0,0,0,21.5,20v4.1H5.76L0,99.51a12.33,12.33,0,0,0,12.33,12.32h1.76V66.14A13.55,13.55,0,0,1,27.62,52.61H55.46A13.55,13.55,0,0,1,69,66.14v45.68h1.76A12.33,12.33,0,0,0,83.09,99.51ZM24.5,38.72a3,3,0,0,1-.1-6h.1a3,3,0,0,1,0,6Zm3-14.58V20h0a14,14,0,0,1,28.08,0h0v4.1Zm31,14.54a3,3,0,1,1-.1-6h.1a3,3,0,0,1,0,6ZM63.66,109V66.14A8.18,8.18,0,0,0,55.51,58H27.62a8.18,8.18,0,0,0-8.15,8.16v59.5a8.19,8.19,0,0,0,8.15,8.15H55.46a8.19,8.19,0,0,0,8.15-8.15V109.05ZM45.05,130.36H37.19a2.11,2.11,0,0,1,0-4.21h7.86a2.11,2.11,0,1,1,.29,4.21ZM59.29,71.55V120.6a2.11,2.11,0,0,1-2.09,2.09H25.89a2.1,2.1,0,0,1-2.09-2.09V71.14a2.09,2.09,0,0,1,2.09-2h31.3a2.11,2.11,0,0,1,2.1,2.1v.31Zm-12.2,32a6.22,6.22,0,0,1-3.22,2.07.9.9,0,0,0-.78,1v1.71a.71.71,0,0,1-.6.79h-2a.75.75,0,0,1-.8-.69.38.38,0,0,1,0-.15V107c0-.92,0-1-.93-1.09a11.74,11.74,0,0,1-3.28-.94c-.81-.4-.89-.6-.66-1.46.17-.63.35-1.27.55-1.9s.42-.82,1.09-.47a10.58,10.58,0,0,0,3.64,1.09,4.44,4.44,0,0,0,2.39-.31,1.87,1.87,0,0,0,1.11-2.39,1.92,1.92,0,0,0-.67-.87,6,6,0,0,0-1.36-.79,34.37,34.37,0,0,1-3.72-1.67c-1.91-1.15-3.12-2.71-3-5a5.54,5.54,0,0,1,4-5.14c1-.36,1-.35,1-1.39v-1c0-.78.15-.92.93-.94h.72c1.66,0,1.66,0,1.67,1.66,0,1.17,0,1.18,1.17,1.36a10.1,10.1,0,0,1,2.58.77.74.74,0,0,1,.51.93.19.19,0,0,1,0,.07c-.21.72-.4,1.44-.63,2.15s-.43.77-1.07.46a8.14,8.14,0,0,0-4.09-.81,3.16,3.16,0,0,0-1.09.22,1.54,1.54,0,0,0-.39,2.75,7.08,7.08,0,0,0,1.78,1,32.26,32.26,0,0,1,3.23,1.46,5.82,5.82,0,0,1,2.57,7.8,6.38,6.38,0,0,1-.63,1Z"/><path class="cls-1" d="M138.38,66.67c-12.6,0-21.92-8.57-21.92-22s9.32-22,21.92-22c9.56,0,17.21,4.9,20.26,13l-8.3,3c-1.9-5-6.44-7.86-12-7.86-7.38,0-13,5.16-13,13.82s5.67,13.86,13,13.86a12.37,12.37,0,0,0,12-7.89l8.3,3c-3,8.13-10.7,13.05-20.26,13.05Zm46.55,0c-12.61,0-21.93-8.6-21.93-22s9.32-22,21.93-22,21.89,8.55,21.89,22-9.32,22-21.89,22Zm0-8.15c7.38,0,13-5.19,13-13.89s-5.67-13.82-13-13.82S171.87,36,171.87,44.63,177.54,58.52,184.93,58.52Zm45.95,8.15c-9.41,0-16.77-4.8-16.77-15.6V23.22H223V49.86c0,6.52,3.47,9,7.86,9s7.92-2.46,7.92-9V23.22h8.9V51.07c0,10.8-7.39,15.61-16.82,15.61Zm44.85-43.45c8.39,0,13.61,6.23,13.61,13.85,0,7.8-5.22,13.65-13.61,13.65H266.8V66.08h-8.9V23.21h17.83Zm-1.49,20.05c4.45,0,6.53-2.46,6.53-6.32s-2.08-6.29-6.53-6.29H266.8V43.27Zm41.56,23.4c-12.61,0-21.92-8.6-21.92-22s9.31-22,21.92-22,21.89,8.55,21.89,22-9.31,22-21.89,22Zm0-8.15c7.39,0,13.05-5.19,13.05-13.89s-5.66-13.82-13.05-13.82S302.75,36,302.75,44.63,308.42,58.52,315.8,58.52Zm59.36-35.3H384V66.08H373.74l-19-30.64V66.08h-8.87V23.22h10.18l19.1,30.46V23.22Z"/><path class="cls-2" d="M136.32,103c0,1.48,0,4.41-.06,4.41v4.47a1.94,1.94,0,0,0,.06.72c.1.23.4.17.6.14a27.28,27.28,0,0,1,2.86,0c1,0,.72-1.65.69-2.31-.13-1.44,0-12.46,0-16.4,0-1.78-.07-5.43-.16-5.59a1.68,1.68,0,0,0-.92-.4,13.12,13.12,0,0,0-2.17.07c-1.09,0-1.16.33-1.16,1.48v1c0,.78.1,6.31.1,7.2,0,.42,0,.46-.46.46-1.08,0-2.59.09-3.71,0-1.61-.14-1.25,0-1.35-1.48v-.2c0-2.11.26-7.56.16-7.89-.16-.49-.36-.59-.79-.56-1,.07-2-.1-3,0-.33,0-.42.13-.52.46a2,2,0,0,0-.07.49c0,1,.07,2.4.1,3.42l-.1,19.5c0,.85.76.75,2.43.75s1.94.36,1.94-1.48c0-1.48-.1-3.35-.06-4.83V103c0-.43.13-.56.52-.56h4.48C136.23,102.44,136.32,102.51,136.32,103Zm35.21,1.25c-.09-3.74-.06-7.72,0-11.44,0-1.15-.06-2.4-.06-3.55s-.5-1.18-1.16-1.22H168c-.62,0-.89.13-.89.76,0,3.22-.1,12.33-.06,13.64s.16,7.3.1,8.62a10.59,10.59,0,0,0,0,1.38.37.37,0,0,0,.39.33c1.09-.07,2.11-.07,3.19-.1a.9.9,0,0,0,.89-.56c0-.23-.07-6.25-.07-7.83Zm33.73,8.52h2.67c.37,0,.36-.66.42-.86.2-.62.33-1.28.5-1.91.36-1.64,4-15.45,5.29-20.61a1.36,1.36,0,0,0,.07-.72c-.1-.5-.4-.56-.79-.56h-2.27c-.76,0-1.19.1-1.45,1-1.28,4.4-2.13,9.66-3.32,14.14l-.2.52h-.13a2.62,2.62,0,0,1-.19-.46c-1.19-4.7-3.13-14-3.46-14.89-.19-.53-.69-.36-1.15-.36h-2.66c-.33,0-.56.16-.53.49s.37,1.71.43,2.11l.36,1.38c.23,1,.56,2.36.79,3.38q1.86,7.86,4.08,15.62c.13.46.23,1.25.56,1.51s.69.14,1,.17ZM240.74,106h0v2.53c0,1,.1,2.1.17,3.15,0,.36.1.46.42.53a9,9,0,0,0,2,.2c1.78-.07,3.55.06,5.33,0a11.68,11.68,0,0,0,1.77-.1c.66-.13.89-.49.89-1.48a15.14,15.14,0,0,1,0-1.65,1.29,1.29,0,0,0-1.16-1.41h-3.8c-1.49,0-1.25.23-1.25-1.32v-4.14c0-.69.06-.92.72-.92h4.11a1,1,0,0,0,1.11-.87.57.57,0,0,0,0-.13c0-.69.07-.73.07-1.42l-.1-1c-.07-.56-.27-.76-.83-.76a9.79,9.79,0,0,0-1.08.07c-1.41.1-2.07-.1-3.45,0-.46,0-.53-.07-.56-.5a19.83,19.83,0,0,1,.13-4c0-.53.16-.63.66-.66h4.63c.63-.07.83,0,.79-.66-.06-1,0-1.94-.06-2.9-.07-.52-.23-.62-.83-.62a16.13,16.13,0,0,0-2.2.1c-1,.1-4.93,0-5.88,0-1.38,0-1.48-.1-1.52,1.58-.06,1.31,0,2.66,0,4,0,2.3-.13,10.55-.06,12.39Z"/></g></g></svg>