<svg xmlns="http://www.w3.org/2000/svg" xmlns:xlink="http://www.w3.org/1999/xlink" viewBox="0 0 3000 2990"><defs><style>.cls-1{fill:none;}.cls-2,.cls-3{fill:#f5f5f5;}.cls-2{opacity:0.7;}.cls-3{opacity:0.5;}.cls-4{opacity:0.27;}.cls-5{clip-path:url(#clip-path);}.cls-6{clip-path:url(#clip-path-2);}.cls-7{fill:url(#linear-gradient);}.cls-8{clip-path:url(#clip-path-3);}.cls-9{opacity:0.44;}.cls-10{clip-path:url(#clip-path-4);}.cls-11{fill:#ba620f;}.cls-12{clip-path:url(#clip-path-5);}.cls-13{fill:url(#linear-gradient-2);}.cls-14{opacity:0.26;}.cls-15{clip-path:url(#clip-path-7);}.cls-16{fill:#326f7d;}.cls-17{clip-path:url(#clip-path-8);}.cls-18{fill:url(#linear-gradient-3);}.cls-19{clip-path:url(#clip-path-9);}.cls-20{fill:url(#linear-gradient-4);}.cls-21{opacity:0.37;}.cls-22{clip-path:url(#clip-path-11);}.cls-23{fill:#b56100;}.cls-24{clip-path:url(#clip-path-12);}.cls-25{fill:url(#linear-gradient-5);}.cls-26{opacity:0.33;}.cls-27{clip-path:url(#clip-path-14);}.cls-28{fill:#a8a8a8;}.cls-29{clip-path:url(#clip-path-15);}.cls-30{fill:url(#linear-gradient-6);}.cls-31{fill:#3a3c56;}.cls-32{clip-path:url(#clip-path-17);}.cls-33{fill:url(#linear-gradient-7);}.cls-34{clip-path:url(#clip-path-19);}.cls-35{fill:url(#linear-gradient-8);}</style><clipPath id="clip-path"><rect class="cls-1" x="930.66" y="862.05" width="1549.4" height="1562.26"/></clipPath><clipPath id="clip-path-2"><path class="cls-1" d="M1312.74,919.21,1237.94,2285c-2.24,40.94,27.75,75.87,67,78l860.83,47.15,15.83.87c39.24,2.15,72.87-29.29,75.11-70.24v-.05l27.63-504.47,18.86-344.33,58.74,3.21c39.26,2.15,72.88-29.29,75.12-70.24L2456,1079.28c2.24-41-27.75-75.87-67-78L2330.24,998l1.26-23c2.24-40.94-27.75-75.88-67-78l-28.67-1.57-848-46.45c-1.27-.07-2.54-.11-3.8-.11-37.6,0-69.15,30.73-71.31,70.35"/></clipPath><linearGradient id="linear-gradient" x1="1" y1="2991.01" x2="2" y2="2991.01" gradientTransform="matrix(0, 2117.8, 2117.8, 0, -6332503.45, -1610.32)" gradientUnits="userSpaceOnUse"><stop offset="0" stop-color="#f1d83a"/><stop offset="1" stop-color="#ff8a14"/></linearGradient><clipPath id="clip-path-3"><rect class="cls-1" width="3000" height="2990"/></clipPath><clipPath id="clip-path-4"><rect class="cls-1" x="1218.86" y="848" width="1046.51" height="1561.29"/></clipPath><clipPath id="clip-path-5"><polygon class="cls-1" points="1995.64 2372.93 2164.43 2383 2216.64 2386.11 2219.49 2338.88 2249.88 1834.45 2301.57 976.6 2253.61 973.74 2079.7 963.37 1995.64 2372.93"/></clipPath><linearGradient id="linear-gradient-2" x1="1" y1="2991" x2="2" y2="2991" gradientTransform="matrix(0, 1964.14, 1964.14, 0, -5872600.69, -1073.96)" gradientUnits="userSpaceOnUse"><stop offset="0" stop-color="#fff"/><stop offset="1" stop-color="#cff9ff"/></linearGradient><clipPath id="clip-path-7"><rect class="cls-1" x="1995.64" y="963.37" width="269.73" height="1419.63"/></clipPath><clipPath id="clip-path-8"><path class="cls-1" d="M1142.81,871.45l-84.49,1394.91a75.84,75.84,0,0,0,71.12,80.29l934.1,56.59a75.86,75.86,0,0,0,80.3-71.13l1.42-23.52,62.6,3.8a75.85,75.85,0,0,0,80.3-71.13l21.38-353a75.85,75.85,0,0,0-71.12-80.3l-62.6-3.79,52.51-867a75.83,75.83,0,0,0-71.12-80.3l-934.1-56.58c-1.56-.1-3.12-.14-4.66-.14a75.84,75.84,0,0,0-75.64,71.26"/></clipPath><linearGradient id="linear-gradient-3" x1="1" y1="2990.98" x2="2" y2="2990.98" gradientTransform="translate(7039227.36 -1954.19) rotate(90) scale(2352.92)" xlink:href="#linear-gradient"/><clipPath id="clip-path-9"><polygon class="cls-1" points="2371 1409.88 2403.55 1411.82 2424.2 1067.83 2391.52 1065.88 2371 1409.88"/></clipPath><linearGradient id="linear-gradient-4" x1="0.99" y1="2990.99" x2="1.99" y2="2990.99" gradientTransform="matrix(20.9, 541.18, 97.43, -377.52, -289039.4, 1129650.96)" xlink:href="#linear-gradient-2"/><clipPath id="clip-path-11"><rect class="cls-1" x="1097.34" y="890.61" width="995.96" height="1441.95"/></clipPath><clipPath id="clip-path-12"><polygon class="cls-1" points="1088.46 926.13 1073.27 2296.46 1862.95 2305.22 2049.57 2307.28 2069.24 876.19 1940.07 874.77 1819.34 873.42 1089.13 865.34 1088.46 926.13"/></clipPath><linearGradient id="linear-gradient-5" x1="1" y1="2991" x2="2" y2="2991" gradientTransform="matrix(0, 2741.74, 2741.74, 0, -8198961.22, -2251.82)" xlink:href="#linear-gradient-2"/><clipPath id="clip-path-14"><rect class="cls-1" x="1073.27" y="864.77" width="965.24" height="1440.45"/></clipPath><clipPath id="clip-path-15"><polygon class="cls-1" points="906.7 972.74 1064.38 2395.24 2034.8 2287.67 1880.9 864.75 906.7 972.74"/></clipPath><linearGradient id="linear-gradient-6" x1="1" y1="2991" x2="2" y2="2991" gradientTransform="matrix(0, 2745.22, 2745.22, 0, -8209471.73, -2211.34)" xlink:href="#linear-gradient-2"/><clipPath id="clip-path-17"><polygon class="cls-1" points="1159.21 1727.22 1124.06 1704.87 1114.53 1719.86 1163.66 1751.11 1237.82 1650.74 1223.53 1640.18 1159.21 1727.22"/></clipPath><linearGradient id="linear-gradient-7" x1="0.99" y1="2990.98" x2="1.99" y2="2990.98" gradientTransform="matrix(0, 173.13, 173.13, 0, -516637.56, 1455.37)" gradientUnits="userSpaceOnUse"><stop offset="0" stop-color="#ffed4d"/><stop offset="1" stop-color="#ff9326"/></linearGradient><clipPath id="clip-path-19"><polygon class="cls-1" points="1186.05 1971.59 1150.91 1949.23 1141.37 1964.23 1190.5 1995.48 1264.66 1895.1 1250.37 1884.54 1186.05 1971.59"/></clipPath><linearGradient id="linear-gradient-8" x1="0.99" y1="2990.98" x2="1.99" y2="2990.98" gradientTransform="matrix(0, 173.13, 173.13, 0, -516610.71, 1699.36)" xlink:href="#linear-gradient-7"/></defs><g id="Layer_2" data-name="Layer 2"><g id="Layer_1-2" data-name="Layer 1"><path class="cls-2" d="M1849.64,1210.29c-221.11-64.59-452.9-571.18-817.31-512.64C601.82,766.81,672,1723,1211.49,2217.24c285.58,261.66,689.31,393.22,1072.52,337,511.18-75,869.79-962.91-434.37-1343.91"/><path class="cls-3" d="M1297.6,1317.32c-144,179.79-700.7,201-785.5,560.16-100.18,424.37,810.52,724,1473.14,413.66,350.77-164.26,626.29-487.35,720.37-863.07C2831.1,926.89,2147,256.88,1297.6,1317.32"/><rect class="cls-1" x="391.99" y="856.59" width="2216.02" height="1665.52"/><g class="cls-4"><g class="cls-5"><path class="cls-3" d="M2479.94,1092.47,2461,1438.09c-2.24,41-35.87,72.39-75.12,70.24l-58.75-3.22-18.85,344.34-27.63,504.47v0c-2.24,41-35.87,72.39-75.11,70.24l-15.83-.87L1362.55,2378l-274.21,30.4L930.66,985.93l181.47-20.12.29-26.49.67-60.79,247.12,2.73a69.52,69.52,0,0,1,51.6-19.1l425.26,23.29-8.91,1,15.14.17,18.68.21-24.91-1.37,67.79-7.51,1,9.37L1964,888l129.18,1.42-.14,10.1,166.73,9.13,28.67,1.57c39.24,2.14,69.24,37.08,67,78l-1.25,23,58.74,3.21c39.25,2.16,69.24,37.08,67,78"/></g></g><rect class="cls-1" width="3000" height="2990"/><g class="cls-6"><rect class="cls-7" x="1061.56" y="722.19" width="1570.79" height="1817.65" transform="translate(-345.42 506.31) rotate(-14.29)"/></g><g class="cls-8"><g class="cls-9"><g class="cls-10"><path class="cls-11" d="M2265.37,1835.4l-27.63,504.47c-1.34,0-2.69,0-4-.13l-62.6-3.79-1.42,23.51a75.57,75.57,0,0,1-22.87,49.83L1286,2362.14c-39.25-2.15-69.24-37.08-67-78l74.8-1365.77c2.24-41,35.87-72.4,75.12-70.24l848,46.45a75.8,75.8,0,0,1,37.29,70l-52.51,867,62.59,3.79,1.12.08"/></g></g></g><g class="cls-12"><rect class="cls-13" x="1612.06" y="1006.14" width="1073.08" height="1337.19" transform="translate(-572.87 1553) rotate(-35.37)"/></g><g class="cls-8"><g class="cls-14"><g class="cls-15"><path class="cls-16" d="M2265.37,1835.4l-27.63,504.47c-1.34,0-2.69,0-4-.13l-14.21-.86L2171.1,2336l-1.42,23.51a75.48,75.48,0,0,1-5.25,23.54l-168.79-10.07L2079.7,963.37l173.91,10.37-52,857.79,48.22,2.92,14.37.87,1.12.08"/></g></g></g><g class="cls-17"><rect class="cls-18" x="766.18" y="605.47" width="1835.5" height="1995.01" transform="translate(-534.25 906.68) rotate(-26.16)"/></g><g class="cls-19"><polygon class="cls-20" points="2417.27 886.57 2435.82 1366.79 2377.92 1591.13 2359.38 1110.91 2417.27 886.57"/></g><g class="cls-8"><g class="cls-21"><g class="cls-22"><polygon class="cls-23" points="2093.3 901.48 2073.63 2332.56 1097.34 2321.74 1113.19 890.61 2093.3 901.48"/></g></g></g><g class="cls-24"><rect class="cls-25" x="740.88" y="710.67" width="1660.75" height="1751.28" transform="translate(-636.83 1255.28) rotate(-36.75)"/></g><g class="cls-8"><g class="cls-26"><g class="cls-27"><polygon class="cls-28" points="2038.52 2292.55 1862.95 2305.22 1073.27 2296.46 1088.46 926.13 1819.34 873.42 1939.37 864.77 1940.07 874.77 2038.52 2292.55"/></g></g></g><g class="cls-29"><rect class="cls-30" x="540.55" y="683.41" width="1860.4" height="1893.17" transform="translate(-711.69 1391.33) rotate(-41.7)"/></g><g class="cls-8"><rect class="cls-31" x="1079.65" y="1295.48" width="751.26" height="14.23" transform="translate(-134.65 168.26) rotate(-6.33)"/><rect class="cls-31" x="1171.88" y="1170.78" width="508.31" height="14.23" transform="translate(-121.1 164.29) rotate(-6.33)"/><rect class="cls-31" x="1085.12" y="1344.6" width="758.59" height="14.23" transform="translate(-140 169.56) rotate(-6.33)"/><rect class="cls-31" x="1088.88" y="1394.21" width="760.32" height="14.23" transform="translate(-145.45 170.38) rotate(-6.33)"/><rect class="cls-31" x="1095.02" y="1441.68" width="760.32" height="14.23" transform="translate(-150.63 171.34) rotate(-6.33)"/><rect class="cls-31" x="1095.67" y="1509.68" width="544.49" height="14.23" transform="translate(-158.78 159.93) rotate(-6.33)"/><rect class="cls-31" x="1253.17" y="1642.44" width="267.08" height="14.23" transform="translate(-173.29 162.81) rotate(-6.33)"/><rect class="cls-31" x="1257.54" y="1671.63" width="636.09" height="14.23" transform="translate(-175.35 183.8) rotate(-6.33)"/><rect class="cls-31" x="1261.58" y="1721.23" width="637.54" height="14.23" transform="translate(-180.79 184.63) rotate(-6.33)"/><rect class="cls-31" x="1274.87" y="1881.85" width="267.08" height="14.23" transform="translate(-199.53 166.66) rotate(-6.33)"/><rect class="cls-31" x="1279.23" y="1911.03" width="636.09" height="14.23" transform="translate(-201.6 187.65) rotate(-6.33)"/><rect class="cls-31" x="1283.27" y="1960.63" width="637.54" height="14.23" transform="translate(-207.04 188.49) rotate(-6.33)"/><path class="cls-31" d="M1098,1670.25l11.87,113.65,120.38-12.57-11.87-113.64Zm115.89,88.58-90.61,9.46-8.93-85.54,90.61-9.46Z"/></g><g class="cls-32"><rect class="cls-33" x="1102.47" y="1626.35" width="147.4" height="138.58" transform="matrix(0.97, -0.25, 0.25, 0.97, -391.71, 353.87)"/></g><g class="cls-8"><path class="cls-31" d="M1124.87,1914.62l11.87,113.65,120.38-12.57-11.87-113.65Zm115.89,88.58-90.6,9.46-8.93-85.55,90.6-9.46Z"/></g><g class="cls-34"><rect class="cls-35" x="1129.31" y="1870.72" width="147.4" height="138.58" transform="translate(-452.83 368.68) rotate(-14.7)"/></g></g></g></svg>