<svg xmlns="http://www.w3.org/2000/svg" viewBox="0 0 127.67 127.67">
  <defs>
    <style>
    .cls-1 {
      fill: #dd0d03;
      stroke-miterlimit: 10;
    }

    .cls-2 {
      fill: #ed1703;
    }

    .cls-3 {
      fill: #fff;
    }
    </style>
  </defs>
  <g id="Layer_2" data-name="Layer 2">
    <g id="textblock">
      <rect class="cls-1" y="38.41" width="127.67" height="50.85" rx="25.43" transform="translate(154.11 63.83) rotate(135)" />
      <rect class="cls-1" y="38.41" width="127.67" height="50.85" rx="25.43" transform="translate(63.83 -26.44) rotate(45)" />
      <rect class="cls-2" y="38.41" width="127.67" height="50.85" rx="25.43" transform="translate(127.67 127.67) rotate(-180)" />
      <rect class="cls-2" y="38.41" width="127.67" height="50.85" rx="25.43" transform="translate(127.67 0) rotate(90)" />
      <g id="textblocktransform">
        <path id="text-0" class="cls-3" d="M56.57,43.91l10.9-1.51V67.68a7.19,7.19,0,0,0,4.13-1.79,13.6,13.6,0,0,0,3-3.89,21.14,21.14,0,0,0,1.89-5.19,26.22,26.22,0,0,0,.63-5.71h0a21.79,21.79,0,0,0-.4-4,10.59,10.59,0,0,0-1.74-4A10.35,10.35,0,0,0,71.15,40a15.6,15.6,0,0,0-6.79-1.24h0a20.14,20.14,0,0,0-6.2.9,13.22,13.22,0,0,0-4.85,2.77,12.46,12.46,0,0,0-3.18,4.76A19,19,0,0,0,49,54.06h0a17.24,17.24,0,0,0,.27,3.36A9.93,9.93,0,0,0,50,59.66a8,8,0,0,0,.87,1.51c.3.4.58.78.83,1.14h0a11.19,11.19,0,0,1-7.19-2.12q-2.66-2.13-2.65-6.66h0a14.49,14.49,0,0,1,1.86-7.19,18.58,18.58,0,0,1,5.07-5.79,25.16,25.16,0,0,1,7.49-3.87,29,29,0,0,1,9-1.4h0a27.35,27.35,0,0,1,8.4,1.22,19.41,19.41,0,0,1,6.51,3.43,15.48,15.48,0,0,1,4.21,5.38,16.31,16.31,0,0,1,1.47,7h0a19.18,19.18,0,0,1-1.14,6.36A17.4,17.4,0,0,1,67.85,70.48h-.38V92.05H56.57Z" />
      </g>
    </g>
  </g>
</svg>