<svg id="visual" viewBox="0 0 900 600" width="900" height="600" xmlns="http://www.w3.org/2000/svg" xmlns:xlink="http://www.w3.org/1999/xlink" version="1.1">
  <rect x="0" y="0" width="900" height="600" fill="#f2f2ff"></rect>
  <defs>
    <linearGradient id="grad1_0" x1="33.3%" y1="100%" x2="100%" y2="0%">
      <stop offset="20%" stop-color="#f2f2ff" stop-opacity="1"></stop>
      <stop offset="80%" stop-color="#f2f2ff" stop-opacity="1"></stop>
    </linearGradient>
  </defs>
  <defs>
    <linearGradient id="grad2_0" x1="0%" y1="100%" x2="66.7%" y2="0%">
      <stop offset="20%" stop-color="#f2f2ff" stop-opacity="1"></stop>
      <stop offset="80%" stop-color="#f2f2ff" stop-opacity="1"></stop>
    </linearGradient>
  </defs>
  <g transform="translate(900, 600)">
    <path d="M-378.6 0C-353.2 -41.3 -327.9 -82.7 -313.2 -129.7C-298.5 -176.8 -294.4 -229.5 -267.7 -267.7C-241 -305.9 -191.5 -329.5 -143.1 -345.5C-94.7 -361.6 -47.4 -370.1 0 -378.6L0 0Z" fill="#ff7433"></path>
  </g>
  <g transform="translate(0, 0)">
    <path d="M378.6 0C376.5 52.7 374.4 105.5 349.8 144.9C325.2 184.3 278.1 210.4 240.4 240.4C202.7 270.4 174.4 304.3 135.9 328C97.3 351.7 48.7 365.1 0 378.6L0 0Z" fill="#ff7433"></path>
  </g>
</svg>